<svg width="24" height="24" viewBox="0 0 24 24" fill="none" xmlns="http://www.w3.org/2000/svg">
<g clip-path="url(#clip0_759_990)">
<path d="M3.17203 3.65314C2.93475 4.06142 2.92908 4.56425 3.15708 4.97778L8.73708 15.0993L10.6402 14.2645L7.38113 7.71364L4.09533 2.06445L3.17203 3.65314Z" fill="#0CACBA"/>
<path d="M20.8277 3.65319C21.065 4.06147 21.0706 4.5643 20.8426 4.97783L15.2626 15.0993L13.3596 14.2645L16.2322 7.54709L19.9044 2.06445L20.8277 3.65319Z" fill="#0996A4"/>
<path d="M16.4956 4.13566L18.5709 0.176266C18.3676 0.0654062 18.1371 0.00390625 17.8976 0.00390625H6.10197C5.84871 0.00390625 5.60524 0.0722031 5.39374 0.195484L5.90716 2.06978L7.47311 4.13566H16.4956Z" fill="#0CACBA"/>
<path d="M17.8976 0.00390625H16.486L15.7684 1.37303C15.338 2.19409 14.4876 2.70855 13.5606 2.70855H6.71993L6.65656 3.48986L7.47312 4.1357H16.4956L17.8965 2.37048L18.5709 0.176266C18.3676 0.0654062 18.1371 0.00390625 17.8976 0.00390625Z" fill="#0996A4"/>
<path d="M19.1141 0.699266C18.9827 0.473094 18.7933 0.292953 18.5713 0.171875L12.0002 12.7089V13.6636L13.3601 14.2601L19.9049 2.06L19.1141 0.699266Z" fill="#EBE1DC"/>
<path d="M7.47347 4.13744L5.3941 0.197266C5.18715 0.317922 5.0108 0.491172 4.8863 0.705438L4.09552 2.06613L10.6404 14.2662L12.0002 13.6698V12.7151L7.47347 4.13744Z" fill="#F3E8E5"/>
<path d="M11.9999 24.0001C15.1114 24.0001 17.6338 21.4778 17.6338 18.3663C17.6338 15.2548 15.1114 12.7324 11.9999 12.7324C8.88845 12.7324 6.36609 15.2548 6.36609 18.3663C6.36609 21.4778 8.88845 24.0001 11.9999 24.0001Z" fill="#EA9B58"/>
<path d="M12.0001 12.7324C11.3038 12.7324 10.6372 12.8591 10.0215 13.0901C12.1569 13.8912 13.6768 15.9511 13.6768 18.3663C13.6768 20.7815 12.1569 22.8414 10.0215 23.6426C10.6372 23.8735 11.3039 24.0002 12.0001 24.0002C15.1117 24.0002 17.634 21.4778 17.634 18.3664C17.634 15.2548 15.1117 12.7324 12.0001 12.7324Z" fill="#D88A55"/>
<path d="M12.0001 22.1071C14.0651 22.1071 15.7391 20.433 15.7391 18.368C15.7391 16.3029 14.0651 14.6289 12.0001 14.6289C9.93503 14.6289 8.26099 16.3029 8.26099 18.368C8.26099 20.433 9.93503 22.1071 12.0001 22.1071Z" fill="#FFE5C2"/>
<path d="M12.266 14.6367C13.1438 15.6302 13.6768 16.9354 13.6768 18.3653C13.6768 19.7953 13.1438 21.1005 12.266 22.094C14.2068 21.9575 15.7392 20.3409 15.7392 18.3653C15.7392 16.3898 14.2068 14.7732 12.266 14.6367Z" fill="#FED2A4"/>
<path d="M10.3699 20.1588C10.1729 20.1588 10.0132 19.9991 10.0132 19.8021V16.9388C10.0132 16.7418 10.1729 16.582 10.3699 16.582C10.567 16.582 10.7267 16.7418 10.7267 16.9388V19.802C10.7267 19.9991 10.567 20.1588 10.3699 20.1588Z" fill="#EA9B58"/>
<path d="M12.0004 20.1588C11.8033 20.1588 11.6436 19.9991 11.6436 19.8021V16.9388C11.6436 16.7418 11.8033 16.582 12.0004 16.582C12.1974 16.582 12.3571 16.7418 12.3571 16.9388V19.802C12.3571 19.9991 12.1974 20.1588 12.0004 20.1588Z" fill="#EA9B58"/>
<path d="M13.6309 20.1588C13.4339 20.1588 13.2742 19.9991 13.2742 19.8021V16.9388C13.2742 16.7418 13.4339 16.582 13.6309 16.582C13.828 16.582 13.9877 16.7418 13.9877 16.9388V19.802C13.9877 19.9991 13.828 20.1588 13.6309 20.1588Z" fill="#EA9B58"/>
</g>
<defs>
<clipPath id="clip0_759_990">
<rect width="24" height="24" fill="white"/>
</clipPath>
</defs>
</svg>
