<svg width="24" height="24" viewBox="0 0 24 24" fill="none" xmlns="http://www.w3.org/2000/svg">
<g clip-path="url(#clip0_759_927)">
<path d="M3.17203 3.64142C2.93475 4.0497 2.92908 4.55253 3.15708 4.96606L8.73708 15.0875L10.6402 14.2527L7.38113 7.70192L4.09533 2.05273L3.17203 3.64142Z" fill="#60B7FF"/>
<path d="M20.8277 3.64147C21.065 4.04975 21.0706 4.55258 20.8426 4.96611L15.2626 15.0876L13.3596 14.2528L16.2322 7.53537L19.9044 2.05273L20.8277 3.64147Z" fill="#0593FC"/>
<path d="M16.4956 4.12394L18.5709 0.164547C18.3676 0.0536875 18.1371 -0.0078125 17.8976 -0.0078125H6.10197C5.84871 -0.0078125 5.60524 0.0604844 5.39374 0.183766L5.90716 2.05806L7.47311 4.12394H16.4956Z" fill="#26A6FE"/>
<path d="M17.8976 -0.0078125H16.486L15.7684 1.36131C15.338 2.18237 14.4876 2.69683 13.5606 2.69683H6.71993L6.65656 3.47814L7.47312 4.12398H16.4956L17.8965 2.35877L18.5709 0.164547C18.3676 0.0536875 18.1371 -0.0078125 17.8976 -0.0078125Z" fill="#0593FC"/>
<path d="M19.1141 0.687547C18.9827 0.461375 18.7933 0.281234 18.5713 0.160156L12.0002 12.6972V13.6519L13.3601 14.2483L19.9049 2.04828L19.1141 0.687547Z" fill="#EBE1DC"/>
<path d="M7.47347 4.12572L5.3941 0.185547C5.18715 0.306203 5.0108 0.479453 4.8863 0.693719L4.09552 2.05441L10.6404 14.2545L12.0002 13.658V12.7034L7.47347 4.12572Z" fill="#F3E8E5"/>
<path d="M12.0002 23.9962C15.1117 23.9962 17.6341 21.4739 17.6341 18.3624C17.6341 15.2509 15.1117 12.7285 12.0002 12.7285C8.8887 12.7285 6.36633 15.2509 6.36633 18.3624C6.36633 21.4739 8.8887 23.9962 12.0002 23.9962Z" fill="#FDD602"/>
<path d="M12 12.7285C11.3037 12.7285 10.637 12.8552 10.0214 13.0862C12.1568 13.8873 13.6767 15.9472 13.6767 18.3624C13.6767 20.7776 12.1568 22.8375 10.0214 23.6387C10.6371 23.8696 11.3037 23.9963 12 23.9963C15.1115 23.9963 17.6339 21.4739 17.6339 18.3625C17.6339 15.2509 15.1115 12.7285 12 12.7285Z" fill="#FDC102"/>
<path d="M12.0002 22.1207C14.0652 22.1207 15.7393 20.4467 15.7393 18.3817C15.7393 16.3166 14.0652 14.6426 12.0002 14.6426C9.93515 14.6426 8.26111 16.3166 8.26111 18.3817C8.26111 20.4467 9.93515 22.1207 12.0002 22.1207Z" fill="#FDA302"/>
<path d="M12.2659 14.6562C13.1437 15.6497 13.6767 16.955 13.6767 18.3849C13.6767 19.8148 13.1437 21.12 12.2659 22.1135C14.2067 21.977 15.7391 20.3604 15.7391 18.3849C15.7391 16.4093 14.2067 14.7928 12.2659 14.6562Z" fill="#FD9002"/>
<path d="M12.0002 20.3804C11.8032 20.3804 11.6434 20.2206 11.6434 20.0236V16.7083C11.6434 16.5113 11.8032 16.3516 12.0002 16.3516C12.1973 16.3516 12.357 16.5113 12.357 16.7083V20.0236C12.3571 20.2206 12.1973 20.3804 12.0002 20.3804Z" fill="#FDD602"/>
</g>
<defs>
<clipPath id="clip0_759_927">
<rect width="24" height="24" fill="white"/>
</clipPath>
</defs>
</svg>
