<svg width="24" height="24" viewBox="0 0 24 24" fill="none" xmlns="http://www.w3.org/2000/svg">
<g clip-path="url(#clip0_759_959)">
<path d="M3.17222 3.64728C2.93493 4.05556 2.92926 4.55839 3.15726 4.97192L8.73726 15.0934L10.6403 14.2586L7.38131 7.70778L4.09551 2.05859L3.17222 3.64728Z" fill="#FD8087"/>
<path d="M20.8279 3.64733C21.0652 4.05561 21.0709 4.55844 20.8429 4.97197L15.2629 15.0935L13.3598 14.2587L16.2325 7.54123L19.9046 2.05859L20.8279 3.64733Z" fill="#FD4755"/>
<path d="M16.4957 4.1298L18.571 0.170406C18.3677 0.0595469 18.1372 -0.00195312 17.8977 -0.00195312H6.10209C5.84883 -0.00195312 5.60536 0.0663437 5.39386 0.189625L5.90728 2.06392L7.47324 4.1298H16.4957Z" fill="#FD8087"/>
<path d="M17.8977 -0.00195312H16.4861L15.7685 1.36717C15.3382 2.18823 14.4878 2.70269 13.5607 2.70269H6.72005L6.65668 3.484L7.47324 4.12984H16.4957L17.8966 2.36462L18.571 0.170406C18.3677 0.0595469 18.1372 -0.00195312 17.8977 -0.00195312Z" fill="#FD4755"/>
<path d="M19.114 0.695359C18.9826 0.469188 18.7932 0.289047 18.5713 0.167969L12.0002 12.705V13.6597L13.36 14.2562L19.9049 2.05609L19.114 0.695359Z" fill="#EBE1DC"/>
<path d="M7.47341 4.13158L5.39404 0.191406C5.18708 0.312062 5.01074 0.485312 4.88624 0.699578L4.09546 2.06027L10.6403 14.2604L12.0001 13.6639V12.7092L7.47341 4.13158Z" fill="#F3E8E5"/>
<path d="M12 24.0001C15.1115 24.0001 17.6339 21.4778 17.6339 18.3663C17.6339 15.2548 15.1115 12.7324 12 12.7324C8.88851 12.7324 6.36615 15.2548 6.36615 18.3663C6.36615 21.4778 8.88851 24.0001 12 24.0001Z" fill="#8EBAC5"/>
<path d="M12.0001 12.7324C11.3038 12.7324 10.6372 12.8591 10.0215 13.0901C12.1569 13.8912 13.6768 15.9511 13.6768 18.3663C13.6768 20.7815 12.1569 22.8414 10.0215 23.6426C10.6372 23.8735 11.3039 24.0002 12.0001 24.0002C15.1117 24.0002 17.634 21.4778 17.634 18.3664C17.634 15.2548 15.1117 12.7324 12.0001 12.7324Z" fill="#7CA1B1"/>
<path d="M12.0002 22.1032C14.0652 22.1032 15.7393 20.4291 15.7393 18.3641C15.7393 16.299 14.0652 14.625 12.0002 14.625C9.93515 14.625 8.26111 16.299 8.26111 18.3641C8.26111 20.4291 9.93515 22.1032 12.0002 22.1032Z" fill="#DEECF1"/>
<path d="M12.2659 14.6367C13.1437 15.6302 13.6767 16.9354 13.6767 18.3653C13.6767 19.7953 13.1437 21.1005 12.2659 22.094C14.2067 21.9575 15.7392 20.3409 15.7392 18.3653C15.7392 16.3898 14.2067 14.7732 12.2659 14.6367Z" fill="#CBE5E8"/>
<path d="M11.0982 20.3804C10.9011 20.3804 10.7414 20.2206 10.7414 20.0236V16.7083C10.7414 16.5113 10.9011 16.3516 11.0982 16.3516C11.2952 16.3516 11.4549 16.5113 11.4549 16.7083V20.0236C11.4549 20.2206 11.2952 20.3804 11.0982 20.3804Z" fill="#7CA1B1"/>
<path d="M12.9019 20.3804C12.7049 20.3804 12.5452 20.2206 12.5452 20.0236V16.7083C12.5452 16.5113 12.7049 16.3516 12.9019 16.3516C13.099 16.3516 13.2587 16.5113 13.2587 16.7083V20.0236C13.2587 20.2206 13.099 20.3804 12.9019 20.3804Z" fill="#7CA1B1"/>
</g>
<defs>
<clipPath id="clip0_759_959">
<rect width="24" height="24" fill="white"/>
</clipPath>
</defs>
</svg>
