<?xml version="1.0" encoding="UTF-8"?>
<svg version="1.1" xmlns="http://www.w3.org/2000/svg" width="800" height="277">
<path d="M0 0 C2.7109375 1.94140625 2.7109375 1.94140625 5.375 4.5625 C6.40874955 5.56000426 7.44261072 6.55739286 8.4765625 7.5546875 C9.03375977 8.1022168 9.59095703 8.64974609 10.16503906 9.21386719 C12.17689545 11.17218828 14.2209083 13.09217942 16.2734375 15.0078125 C22.67320066 20.98227054 29.03441382 26.96373495 35.14941406 33.23168945 C37.26121566 35.31974944 37.26121566 35.31974944 41 38 C41 31.07 41 24.14 41 17 C45.20996904 14.89501548 46.74127038 14.80855049 51.296875 15.0234375 C52.50214844 15.075 53.70742187 15.1265625 54.94921875 15.1796875 C56.83060547 15.27636719 56.83060547 15.27636719 58.75 15.375 C60.01972656 15.43171875 61.28945312 15.4884375 62.59765625 15.546875 C65.73234615 15.68828958 68.86622836 15.83969991 72 16 C71.97477768 16.6034021 71.94955536 17.2068042 71.92356873 17.82849121 C71.67505433 24.18956339 71.5505477 30.54504236 71.4934082 36.91064453 C71.45657163 39.2755848 71.38958456 41.64027628 71.2902832 44.00341797 C70.40684117 58.89940285 70.40684117 58.89940285 76.55712891 71.90795898 C80.08161799 75.45162122 83.91190075 78.51175089 87.93972778 81.46234131 C90.63211774 83.47177326 92.95275767 85.67643801 95.34375 88.03515625 C96.40529297 89.06092773 96.40529297 89.06092773 97.48828125 90.10742188 C98.15214844 90.75259766 98.81601563 91.39777344 99.5 92.0625 C100.22574219 92.74248047 100.95148438 93.42246094 101.69921875 94.12304688 C105.01424185 97.36654509 106.79631965 99.26839814 108.0625 103.81640625 C108 107 108 107 106.5 109.875 C103.13880571 112.73201515 101.4195844 113.22097922 97 113 C94.88378906 111.66918945 94.88378906 111.66918945 92.765625 109.98828125 C92.05696289 109.43309814 91.34830078 108.87791504 90.61816406 108.3059082 C90.08416992 107.8749585 89.55017578 107.44400879 89 107 C89.1091481 116.18214418 89.22205556 125.36423317 89.33933926 134.54627705 C89.39373147 138.81314034 89.44698457 143.08001053 89.49731445 147.34692383 C89.55577449 152.28992589 89.6187187 157.23285961 89.68359375 162.17578125 C89.69380932 162.98415562 89.70402489 163.79252998 89.71455002 164.62540054 C89.8211365 172.8325338 89.96522896 181.03170013 90.32861328 189.23193359 C90.38316177 190.47758591 90.43771027 191.72323822 90.49391174 193.00663757 C90.60104299 195.28551929 90.71852541 197.56394967 90.84873962 199.84162903 C91.09962478 204.98566961 91.28317442 209.23143133 89 214 C87.125 215.5 87.125 215.5 85 216 C82.8125 215.3125 82.8125 215.3125 81 214 C79.58806436 209.76419307 79.98009657 205.75855348 80.0625 201.32421875 C80.09103139 198.0292403 80.09103139 198.0292403 79.4375 194.95703125 C79 192 79 192 79.44869995 189.33529663 C80.09130575 185.44761159 80.26338577 181.60814337 80.38330078 177.67822266 C80.42448029 176.45724884 80.42448029 176.45724884 80.4664917 175.21160889 C80.70624058 167.70839613 80.84991103 160.20327938 80.96293831 152.69718361 C81.04024365 147.66893166 81.14975734 142.64605 81.33740234 137.62060547 C83.34759564 114.80195774 83.34759564 114.80195774 76.41918945 93.97192383 C73.0677555 90.44860948 69.41992603 87.83640069 65.22541809 85.40657043 C61.32981928 82.94436608 58.20160082 79.66300385 54.9375 76.4375 C53.61659108 75.19309189 52.29276422 73.951767 50.96484375 72.71484375 C48.31080819 70.22827999 45.65712612 67.74134036 43.00390625 65.25390625 C42.34285889 64.63418945 41.68181152 64.01447266 41.00073242 63.37597656 C39.67128503 62.12942699 38.34201947 60.88268346 37.01293945 59.63574219 C33.60973278 56.44343493 30.20274223 53.25532677 26.7890625 50.07421875 C20.14300197 43.87411941 13.57925993 37.63457193 7.1953125 31.1640625 C3.9340579 27.94923145 0.49920149 24.95184037 -3 22 C-6.48654476 23.4841373 -8.64191072 25.46214052 -11.25 28.1875 C-14.0587808 31.06501117 -16.87666256 33.82989001 -19.9375 36.4375 C-23.1103592 39.15619248 -26.06338382 42.02751675 -29 45 C-31.89591958 47.93118191 -34.80242571 50.76403174 -37.9375 53.4375 C-41.80459816 56.74211116 -45.35777845 60.32845304 -48.92675781 63.94628906 C-52.19348513 67.24025803 -55.57885208 70.31474342 -59.10546875 73.32421875 C-61.865228 75.76532539 -64.41210976 78.402906 -66.99609375 81.02734375 C-69.57598216 83.56699998 -72.30083052 85.90878367 -75.046875 88.265625 C-77.63953956 90.56791113 -80.05222488 93.02333082 -82.45703125 95.51953125 C-84 97 -84 97 -87 99 C-87.43529023 101.59445836 -87.43529023 101.59445836 -87.328125 104.66796875 C-87.32123657 106.44602905 -87.32123657 106.44602905 -87.31420898 108.26000977 C-87.29302002 109.55608154 -87.27183105 110.85215332 -87.25 112.1875 C-87.23868442 113.55980672 -87.22836723 114.932122 -87.21899414 116.30444336 C-87.14980056 124.04621194 -86.90883852 131.77293662 -86.58422852 139.50830078 C-85.91204958 155.79046546 -86.03924657 172.02076416 -86.3125 188.3125 C-86.32965057 189.51939484 -86.34680115 190.72628967 -86.36447144 191.96975708 C-86.41565518 195.41373375 -86.48080615 198.8571409 -86.55078125 202.30078125 C-86.56551483 203.35138733 -86.58024841 204.40199341 -86.59542847 205.48443604 C-86.61848053 206.44645935 -86.64153259 207.40848267 -86.6652832 208.3996582 C-86.68162308 209.24325394 -86.69796295 210.08684967 -86.71479797 210.95600891 C-87 213 -87 213 -89 215 C-92.125 215.125 -92.125 215.125 -95 215 C-96.69424679 211.61150642 -96.37635239 207.76166935 -96.52734375 204.02734375 C-96.56866928 203.03677475 -96.60999481 202.04620575 -96.65257263 201.02561951 C-97.28548917 184.16284233 -97.35561124 167.28086775 -97.53222656 150.40863037 C-97.58322363 145.61418638 -97.63849366 140.81979163 -97.69335938 136.02539062 C-97.79965632 126.68363618 -97.90136459 117.34183827 -98 108 C-98.46833252 108.35368652 -98.93666504 108.70737305 -99.41918945 109.07177734 C-100.04011475 109.5302002 -100.66104004 109.98862305 -101.30078125 110.4609375 C-101.91348877 110.91774902 -102.52619629 111.37456055 -103.1574707 111.84521484 C-105.96441215 113.60443481 -107.79596179 113.71200849 -111 113 C-114.1340025 110.27836625 -114.91220969 108.61453214 -115.5 104.5 C-114.5806152 98.06430642 -109.96965384 95.02615449 -105.2734375 91.01953125 C-102.74407573 88.77265834 -100.37566293 86.40855673 -98 84 C-94.43640017 80.39280873 -90.78075144 77.00522111 -86.9296875 73.7109375 C-84.15892418 71.25426881 -81.597071 68.60640023 -79 65.96875 C-76.43694772 63.44574541 -73.72654176 61.12437183 -71 58.78125 C-68.91662922 56.9257479 -66.95718793 54.98776899 -65 53 C-61.79970478 49.74970017 -58.45775424 46.75275755 -55 43.78125 C-52.91662922 41.9257479 -50.95718793 39.98776899 -49 38 C-45.79970478 34.74970017 -42.45775424 31.75275755 -39 28.78125 C-36.91662922 26.9257479 -34.95718793 24.98776899 -33 23 C-30.46027814 20.4207494 -27.87548686 17.97782611 -25.125 15.625 C-20.95447982 12.04791352 -17.13118541 8.16637485 -13.296875 4.234375 C-12.15992187 3.12835938 -12.15992187 3.12835938 -11 2 C-10.38640625 1.38640625 -9.7728125 0.7728125 -9.140625 0.140625 C-5.78377042 -1.64806394 -3.59912071 -0.97623209 0 0 Z M-72 70 C-72 70.66 -72 71.32 -72 72 C-71.34 71.67 -70.68 71.34 -70 71 C-70.66 70.67 -71.32 70.34 -72 70 Z " fill="#4B40E0" transform="translate(115,1)"/>
<path d="M0 0 C12.78944738 13.64035819 19.75039146 29.55610928 19.2890625 48.38671875 C18.25230514 59.23811249 14.94028321 69.3888912 9.9375 79.06640625 C13.90303272 83.65158407 13.90303272 83.65158407 19.3125 86.00390625 C28.44669136 88.68116923 35.49267022 98.45839601 42.11328125 105.07421875 C43.17076189 106.12847844 44.22831428 107.18266616 45.28593445 108.23678589 C47.48706846 110.43197368 49.68616859 112.6291758 51.8840332 114.82763672 C54.69431298 117.63801866 57.51144561 120.44142298 60.33033466 123.24316597 C62.51023445 125.4119363 64.68556305 127.58524753 66.85964012 129.75985336 C67.89660398 130.79564148 68.93517986 131.82981847 69.97542763 132.8623085 C71.42763953 134.30468741 72.87333711 135.75330762 74.31762695 137.20361328 C75.13955032 138.02411163 75.96147369 138.84460999 76.80830383 139.68997192 C79.9359127 143.18075271 81.77882264 145.81965557 82.375 150.50390625 C81.69135567 156.07072439 79.34188113 158.88048441 75.125 162.44140625 C71.20767228 164.43847528 69.28320109 164.81566506 64.9375 164.06640625 C57.46048206 159.76246598 51.5354707 152.93920407 45.5078125 146.8671875 C44.42581157 145.78399197 43.34343797 144.70116859 42.26071167 143.61869812 C40.00695293 141.36338497 37.75656419 139.10478238 35.50878906 136.84350586 C32.62894141 133.94657775 29.74246256 131.05636825 26.85368538 128.16834736 C24.62464321 125.93903342 22.39821506 123.70712453 20.17266464 121.47432518 C19.10872971 120.40721273 18.04419216 119.34070076 16.97903824 118.27480507 C15.49537275 116.7889715 14.01504556 115.29989251 12.53564453 113.80981445 C11.27278122 112.54123344 11.27278122 112.54123344 9.98440552 111.24702454 C7.24731385 108.33113414 5.97982469 106.81414242 5.75 102.75390625 C4.64457691 97.73698607 1.99472612 95.95837161 -2.0625 93.06640625 C-3.114375 93.64648438 -3.114375 93.64648438 -4.1875 94.23828125 C-7.13985272 95.85886616 -10.10059693 97.46335499 -13.0625 99.06640625 C-13.76375 99.45699219 -14.465 99.84757812 -15.1875 100.25 C-29.15416871 107.72798721 -46.59613328 108.42466107 -61.8125 104.44140625 C-72.36462142 100.8360981 -80.16004233 94.80867896 -88.0625 87.06640625 C-88.701875 86.463125 -89.34125 85.85984375 -90 85.23828125 C-101.0303536 73.91247175 -104.48878979 58.46950746 -104.42602539 43.21508789 C-104.10801291 26.97666393 -98.46408489 13.06867432 -87.2890625 1.16015625 C-62.68686039 -21.97454608 -25.20312718 -23.47041219 0 0 Z M-82.14453125 9.625 C-91.55581246 21.60473677 -96.14833843 34.76595571 -95.0625 50.06640625 C-92.56316753 66.42030614 -84.87597684 77.93976916 -72.3125 88.44140625 C-59.5378989 97.20113272 -46.86653834 98.67814365 -31.8125 95.87890625 C-18.87107714 92.74814955 -6.99505516 85.4495237 0.59765625 74.26953125 C1.03980469 73.5425 1.48195313 72.81546875 1.9375 72.06640625 C2.47246094 71.195 3.00742188 70.32359375 3.55859375 69.42578125 C7.98013889 61.49456838 9.17033142 54.03331177 9.9375 45.06640625 C10.14134376 43.25339584 10.348835 41.44078547 10.5625 39.62890625 C10.68625 38.45328125 10.81 37.27765625 10.9375 36.06640625 C10.2775 36.06640625 9.6175 36.06640625 8.9375 36.06640625 C8.628125 34.45765625 8.628125 34.45765625 8.3125 32.81640625 C4.59704739 18.38721699 -4.57794414 7.02629973 -17.3203125 -0.5 C-39.31138318 -11.99675633 -64.75037152 -8.70163015 -82.14453125 9.625 Z M12.9375 52.06640625 C13.2675 52.72640625 13.5975 53.38640625 13.9375 54.06640625 C14.5975 54.06640625 15.2575 54.06640625 15.9375 54.06640625 C15.9375 53.40640625 15.9375 52.74640625 15.9375 52.06640625 C14.9475 52.06640625 13.9575 52.06640625 12.9375 52.06640625 Z M3.8125 85.06640625 C3.19375 85.72640625 2.575 86.38640625 1.9375 87.06640625 C3.2123209 89.91023748 4.38887078 92.20394643 6.9375 94.06640625 C9.00349083 94.13395459 9.00349083 94.13395459 10.9375 93.06640625 C12.69172772 91.08970018 12.69172772 91.08970018 13.9375 89.06640625 C12.9854279 88.06044328 12.02562654 87.06179062 11.0625 86.06640625 C10.26199219 85.23109375 10.26199219 85.23109375 9.4453125 84.37890625 C6.90501352 82.16766154 6.2018459 82.81761011 3.8125 85.06640625 Z M62.9375 149.06640625 C63.9375 151.06640625 63.9375 151.06640625 63.9375 151.06640625 Z M64.9375 152.06640625 C64.9375 152.72640625 64.9375 153.38640625 64.9375 154.06640625 C66.2575 154.39640625 67.5775 154.72640625 68.9375 155.06640625 C69.5975 154.07640625 70.2575 153.08640625 70.9375 152.06640625 C67.88836772 151.05529532 67.88836772 151.05529532 64.9375 152.06640625 Z " fill="#4B40E0" transform="translate(156.0625,112.93359375)"/>
<path d="M0 0 C5.94 0 11.88 0 18 0 C18 5.61 18 11.22 18 17 C23.28 17 28.56 17 34 17 C34 21.29 34 25.58 34 30 C28.72 30 23.44 30 18 30 C18.11981065 33.95120235 18.24242156 37.9021587 18.37231445 41.85302734 C18.43698251 43.85894807 18.49683106 45.86502228 18.55664062 47.87109375 C18.59853516 49.12792969 18.64042969 50.38476562 18.68359375 51.6796875 C18.72025146 52.84226074 18.75690918 54.00483398 18.79467773 55.20263672 C18.81821659 57.9535501 18.81821659 57.9535501 20 60 C21.85625 60.0309375 21.85625 60.0309375 23.75 60.0625 C24.44609375 60.07410156 25.1421875 60.08570313 25.859375 60.09765625 C28.33999176 60.05530256 28.33999176 60.05530256 32 59 C33.32 63.29 34.64 67.58 36 72 C27.88953937 76.4747369 19.55527747 77.79790353 10.46484375 75.3046875 C5.8246247 73.24044052 3.41169625 70.53398895 1 66 C-0.18975795 62.43072615 -0.12478155 59.20053028 -0.09765625 55.48828125 C-0.0962413 54.76005661 -0.09482635 54.03183197 -0.09336853 53.28153992 C-0.08777659 50.95848461 -0.07522562 48.63552612 -0.0625 46.3125 C-0.05748396 44.73632952 -0.05292123 43.16015752 -0.04882812 41.58398438 C-0.0378098 37.72261902 -0.02055074 33.86132592 0 30 C-2.64 30 -5.28 30 -8 30 C-8.66 28.02 -9.32 26.04 -10 24 C-11.65 26.97 -13.3 29.94 -15 33 C-20 32 -20 32 -23.5625 30.4375 C-28.90548022 28.32492049 -34.34686621 28.74560898 -40 29 C-39.96906827 31.41585574 -39.96906827 31.41585574 -39 34 C-34.83222447 36.6761506 -30.28311395 37.90646248 -25.5625 39.3125 C-18.93202604 41.40680184 -13.65534467 43.70432295 -9.85546875 49.8515625 C-7.97749841 54.56792637 -8.13896795 60.32884374 -9.6875 65.1328125 C-12.39143312 70.33788376 -16.35690608 72.92332792 -21.65625 75.08203125 C-25.72786238 76.19982203 -29.42163525 76.38390166 -33.625 76.375 C-34.41680664 76.37338867 -35.20861328 76.37177734 -36.02441406 76.37011719 C-45.33247677 76.1773802 -53.59874985 73.7565279 -61 68 C-59.02 64.04 -57.04 60.08 -55 56 C-50 58 -50 58 -47.7109375 59.0703125 C-41.31734949 61.95704956 -35.96762337 62.47687156 -29 62 C-28.34 60.68 -27.68 59.36 -27 58 C-29.11822563 55.63681228 -30.78522472 54.49802334 -33.80078125 53.53515625 C-34.89616211 53.17067383 -34.89616211 53.17067383 -36.01367188 52.79882812 C-37.53446087 52.3117105 -39.05529352 51.82472917 -40.57617188 51.33789062 C-47.24327658 49.1194247 -53.32116155 46.2676507 -57 40 C-58.21150425 35.12079109 -58.29722148 31.11458057 -57 26.25 C-53.95997865 21.3099653 -50.40720522 18.09894151 -45.125 15.6875 C-32.69484947 12.95286688 -21.56350411 14.62284008 -10 20 C-9.505 18.515 -9.505 18.515 -9 17 C-6.03 17 -3.06 17 0 17 C0 11.39 0 5.78 0 0 Z " fill="#111111" transform="translate(447,76)"/>
<path d="M0 0 C17 0 17 0 21.703125 3.9609375 C22.94292241 5.72661384 24.12393981 7.53470138 25.25 9.375 C25.89638428 10.32149414 26.54276855 11.26798828 27.20874023 12.24316406 C28.53466716 14.18887604 29.83817951 16.15005485 31.11865234 18.12597656 C33.43305947 21.66155931 35.89812364 25.06748451 38.39550781 28.47509766 C39.96083531 30.61126075 41.49993476 32.7640302 43.03515625 34.921875 C46.25794856 39.35480671 49.63522041 43.67385482 53 48 C53.33 32.16 53.66 16.32 54 0 C59.94 0 65.88 0 72 0 C72 26.4 72 52.8 72 80 C55 80 55 80 50.62890625 76.5546875 C49.03662109 74.31201172 49.03662109 74.31201172 47.5625 71.875 C46.71679443 70.64354248 46.71679443 70.64354248 45.85400391 69.38720703 C44.719283 67.72723005 43.60762719 66.0512225 42.52099609 64.359375 C40.42347189 61.10568738 38.15343214 58.00467467 35.875 54.875 C34.26625 52.60625 32.6575 50.3375 31 48 C27.04 42.72 23.08 37.44 19 32 C18.67 47.84 18.34 63.68 18 80 C12.06 80 6.12 80 0 80 C0 53.6 0 27.2 0 0 Z " fill="#111111" transform="translate(247,72)"/>
<path d="M0 0 C3.33985123 4.44336932 5.12907444 8.92042586 5.11352539 14.47143555 C5.11344986 15.37214279 5.11337433 16.27285004 5.11329651 17.20085144 C5.10813522 18.16968765 5.10297394 19.13852386 5.09765625 20.13671875 C5.0962413 21.13129593 5.09482635 22.12587311 5.09336853 23.15058899 C5.08776761 26.32958982 5.07521496 29.50852043 5.0625 32.6875 C5.05748512 34.84179586 5.05292219 36.99609282 5.04882812 39.15039062 C5.03779787 44.43362084 5.02053262 49.71679851 5 55 C-0.94 55 -6.88 55 -13 55 C-13.33 53.35 -13.66 51.7 -14 50 C-14.928125 50.639375 -15.85625 51.27875 -16.8125 51.9375 C-23.33350361 56.15697292 -30.50439826 55.55494027 -38 55 C-43.96247789 53.42619362 -47.63350053 50.0497492 -51 45 C-53.26981671 39.5318052 -53.43125566 34.68353698 -52 29 C-49.16594936 23.635547 -45.80132414 20.05611418 -40.078125 17.8984375 C-34.82767841 16.47393503 -29.45852147 16.78791337 -24.0625 16.875 C-22.99708984 16.88402344 -21.93167969 16.89304687 -20.83398438 16.90234375 C-18.22241966 16.92576586 -15.61133063 16.95856548 -13 17 C-15.11326526 12.29157376 -15.11326526 12.29157376 -19 9 C-26.70765853 7.11241016 -33.8408758 8.9627958 -41 12 C-41.99 12 -42.98 12 -44 12 C-45.65 8.37 -47.3 4.74 -49 1 C-34.79951684 -6.39203233 -13.45342203 -12.69128236 0 0 Z M-35 31 C-35.55543436 34.81861121 -35.53382262 37.05367809 -33.625 40.4375 C-29.52992042 42.87504737 -25.64072452 42.73929523 -21 42 C-17.14455202 40.00342873 -15.40194908 38.60292362 -13 35 C-12.92094936 32.66800612 -12.91201231 30.33167378 -13 28 C-15.91722548 27.91896596 -18.83219516 27.85948919 -21.75 27.8125 C-22.9875 27.77479492 -22.9875 27.77479492 -24.25 27.73632812 C-30.28731434 27.55658906 -30.28731434 27.55658906 -35 31 Z " fill="#111111" transform="translate(535,97)"/>
<path d="M0 0 C4.68960753 4.43611523 6.22419906 9.91153965 8 16 C8 20.29 8 24.58 8 29 C-6.19 29 -20.38 29 -35 29 C-30.64953726 36.83552731 -30.64953726 36.83552731 -23.47265625 39.73046875 C-17.6291598 40.36743756 -12.70841794 39.1617242 -7.875 35.875 C-7.25625 35.25625 -6.6375 34.6375 -6 34 C-2.01117624 35.53416298 1.64783382 38.4247074 4 42 C3.92578125 44 3.92578125 44 3 46 C1.1796875 47.6328125 1.1796875 47.6328125 -1.125 49.125 C-1.87007813 49.62257812 -2.61515625 50.12015625 -3.3828125 50.6328125 C-12.41609674 55.35169233 -24.34226488 55.51126503 -34.18359375 53.27734375 C-42.51568468 50.14488339 -48.05515879 44.97899957 -52 37 C-55.34637462 28.53870045 -54.95346834 18.85634112 -52.02734375 10.34765625 C-48.52535518 2.34501317 -42.97962237 -2.54141014 -35 -6 C-22.87986247 -9.79383806 -9.68691695 -8.54854312 0 0 Z M-34 12 C-34.66 13.98 -35.32 15.96 -36 18 C-27.09 18 -18.18 18 -9 18 C-10.63966654 11.27497942 -10.63966654 11.27497942 -15.09765625 6.890625 C-22.29713921 3.52002517 -29.43445691 5.69643766 -34 12 Z " fill="#111111" transform="translate(379,98)"/>
<path d="M0 0 C0.495 0.99 0.495 0.99 1 2 C-0.21484375 4.6015625 -0.21484375 4.6015625 -1.9375 7.625 C-2.50339844 8.62789062 -3.06929687 9.63078125 -3.65234375 10.6640625 C-4.31943359 11.82035156 -4.31943359 11.82035156 -5 13 C-8.16971656 12.43999862 -10.57380434 11.74833143 -13.5625 10.4375 C-18.90548022 8.32492049 -24.34686621 8.74560898 -30 9 C-29.96906827 11.41585574 -29.96906827 11.41585574 -29 14 C-24.84582573 16.66964953 -20.33629839 17.87060954 -15.625 19.25 C-9.30290813 21.2251696 -4.20870744 23.7453416 0 29 C1.7034608 34.1103824 1.97227202 39.96095547 0.31640625 45.13671875 C-2.40129326 50.33530577 -6.35372397 52.92203168 -11.65625 55.08203125 C-15.72786238 56.19982203 -19.42163525 56.38390166 -23.625 56.375 C-24.41680664 56.37338867 -25.20861328 56.37177734 -26.02441406 56.37011719 C-35.33247677 56.1773802 -43.59874985 53.7565279 -51 48 C-49.02 44.04 -47.04 40.08 -45 36 C-40 38 -40 38 -37.7109375 39.0703125 C-31.31734949 41.95704956 -25.96762337 42.47687156 -19 42 C-18.34 40.68 -17.68 39.36 -17 38 C-19.11822563 35.63681228 -20.78522472 34.49802334 -23.80078125 33.53515625 C-24.89616211 33.17067383 -24.89616211 33.17067383 -26.01367188 32.79882812 C-27.53446087 32.3117105 -29.05529352 31.82472917 -30.57617188 31.33789062 C-37.24327658 29.1194247 -43.32116155 26.2676507 -47 20 C-48.21150425 15.12079109 -48.29722148 11.11458057 -47 6.25 C-43.94668586 1.28836452 -40.38898114 -1.9325829 -35.0625 -4.3125 C-23.27076779 -6.95962356 -10.76274946 -6.00275351 0 0 Z " fill="#111111" transform="translate(645,96)"/>
<path d="M0 0 C-1.31061591 4.23429756 -2.94356259 8.07407404 -5 12 C-8.17121466 11.50449771 -10.64985279 10.71989104 -13.625 9.4375 C-18.6731189 7.44533047 -23.65405288 7.73466807 -29 8 C-29.33 9.65 -29.66 11.3 -30 13 C-24.78753424 15.12569102 -19.57104695 17.16062575 -14.25 19 C-8.38689944 21.11999116 -3.30898462 23.42697327 0 29 C1.84096406 33.85345069 1.38685166 38.75347799 -0.125 43.625 C-3.44855544 49.60739979 -7.46756272 52.1045279 -13.78588867 54.38037109 C-17.46346717 55.4095578 -21.01281117 55.48824983 -24.8125 55.4375 C-25.59786133 55.43137695 -26.38322266 55.42525391 -27.19238281 55.41894531 C-36.27718048 55.17603628 -43.75900301 52.4796734 -51 47 C-49.68938409 42.76570244 -48.05643741 38.92592596 -46 35 C-43.48635178 36.00005359 -40.98043937 37.00834831 -38.4921875 38.0703125 C-31.79807334 40.76794059 -26.1875795 41.5004891 -19 41 C-18.67 39.35 -18.34 37.7 -18 36 C-22.91566447 32.71313705 -28.18201614 31.12551555 -33.76171875 29.33789062 C-39.34232115 27.46616646 -43.37408439 25.35477433 -46.8125 20.375 C-48.6193638 15.23970288 -48.99378788 10.23762339 -47.37890625 4.9765625 C-44.92620671 -0.01604368 -41.05237881 -2.86309224 -36 -5 C-23.4826665 -8.80962324 -11.08345826 -6.69093563 0 0 Z " fill="#111111" transform="translate(594,97)"/>
<path d="M0 0 C0.8828125 1.8359375 0.8828125 1.8359375 1 4 C0.00390625 6.359375 0.00390625 6.359375 -1.4375 8.75 C-1.91058594 9.54921875 -2.38367188 10.3484375 -2.87109375 11.171875 C-3.24363281 11.77515625 -3.61617187 12.3784375 -4 13 C-7.18142763 12.43696384 -9.61680091 11.73413754 -12.625 10.4375 C-17.6731189 8.44533047 -22.65405288 8.73466807 -28 9 C-28.33 10.65 -28.66 12.3 -29 14 C-23.78753424 16.12569102 -18.57104695 18.16062575 -13.25 20 C-7.38689944 22.11999116 -2.30898462 24.42697327 1 30 C2.84096406 34.85345069 2.38685166 39.75347799 0.875 44.625 C-2.44855544 50.60739979 -6.46756272 53.1045279 -12.78588867 55.38037109 C-16.46346717 56.4095578 -20.01281117 56.48824983 -23.8125 56.4375 C-24.59786133 56.43137695 -25.38322266 56.42525391 -26.19238281 56.41894531 C-35.27718048 56.17603628 -42.75900301 53.4796734 -50 48 C-48.68938409 43.76570244 -47.05643741 39.92592596 -45 36 C-42.48635178 37.00005359 -39.98043937 38.00834831 -37.4921875 39.0703125 C-30.90794861 41.7236625 -25.10171039 42.79926999 -18 42 C-16.70366379 40.93354885 -16.70366379 40.93354885 -16.9375 38.4375 C-16.958125 37.633125 -16.97875 36.82875 -17 36 C-17.66644531 35.75765625 -18.33289063 35.5153125 -19.01953125 35.265625 C-20.96054945 34.5598002 -22.90058496 33.85126951 -24.83984375 33.140625 C-26.8873287 32.40160695 -28.94180636 31.68157392 -31.00390625 30.984375 C-37.3078743 28.82301453 -41.91033019 27.02641834 -45.8125 21.375 C-47.67594964 16.07887997 -48.07745608 11.12897599 -46.2265625 5.75390625 C-43.0512171 -0.2026814 -38.23381563 -2.82191984 -32 -5 C-22.5046462 -7.61466264 -7.97709672 -6.05705111 0 0 Z " fill="#111111" transform="translate(725,96)"/>
<path d="M0 0 C6.27 0 12.54 0 19 0 C19 5.61 19 11.22 19 17 C24.28 17 29.56 17 35 17 C35 21.29 35 25.58 35 30 C29.72 30 24.44 30 19 30 C19.11966605 34.11192929 19.24220982 38.22360851 19.37231445 42.33520508 C19.41571434 43.73489199 19.45738564 45.13463359 19.49731445 46.53442383 C19.55489445 48.54261495 19.61914 50.55061149 19.68359375 52.55859375 C19.72025146 53.76829834 19.75690918 54.97800293 19.79467773 56.22436523 C19.68938266 58.90705456 19.68938266 58.90705456 21 60 C25.27051305 60.14001682 28.87965644 60.16665907 33 59 C33.53341184 60.57914015 34.05125763 62.16354387 34.5625 63.75 C34.85253906 64.63171875 35.14257812 65.5134375 35.44140625 66.421875 C36.02771728 69.12792591 36.11657418 70.4794167 35 73 C28.17088401 76.74931858 20.64792324 76.90497468 13 76 C8.14825673 73.97553159 4.67045182 71.59274415 2 67 C-0.33950917 59.15054338 -0.23328521 51.57971458 -0.125 43.4375 C-0.11597656 42.14263672 -0.10695313 40.84777344 -0.09765625 39.51367188 C-0.07425094 36.34225229 -0.04146228 33.17122627 0 30 C-2.64 30 -5.28 30 -8 30 C-8 25.71 -8 21.42 -8 17 C-5.36 17 -2.72 17 0 17 C0 11.39 0 5.78 0 0 Z " fill="#111112" transform="translate(735,76)"/>
<path d="M0 0 C5.94 0 11.88 0 18 0 C18 20.13 18 40.26 18 61 C12.06 61 6.12 61 0 61 C0 40.87 0 20.74 0 0 Z " fill="#101010" transform="translate(652,91)"/>
<path d="M0 0 C2.75329021 1.79562405 4.52627461 3.05254922 6 6 C6.36524972 10.45604661 6.53894975 12.94455674 4.5 16.9375 C1.14436525 19.70589867 -1.68446902 20.31744462 -6 20 C-8.97160035 18.64339984 -10.70283441 17.29716559 -13 15 C-13.85079252 11.80952804 -14.14312477 9.60112402 -13.375 6.375 C-10.10437156 0.72573269 -6.42675351 -0.91810764 0 0 Z " fill="#111112" transform="translate(665,64)"/>
<path d="M0 0 C5.94 0 11.88 0 18 0 C18 1.65 18 3.3 18 5 C13.71 5 9.42 5 5 5 C5 6.32 5 7.64 5 9 C8.63 9 12.26 9 16 9 C16.33 10.65 16.66 12.3 17 14 C13.04 14 9.08 14 5 14 C5 15.65 5 17.3 5 19 C9.29 19 13.58 19 18 19 C18 20.65 18 22.3 18 24 C12.06 24 6.12 24 0 24 C0 16.08 0 8.16 0 0 Z " fill="#4C40E1" transform="translate(528,187)"/>
<path d="M0 0 C1.65 0 3.3 0 5 0 C5 8.58 5 17.16 5 26 C2.66666667 26 0.33333333 26 -2 26 C-3.093125 26.103125 -4.18625 26.20625 -5.3125 26.3125 C-9 26 -9 26 -11.9375 24.0625 C-14.71226552 19.94239363 -14.79418905 16.82830841 -14 12 C-13 9.5 -13 9.5 -11 8 C-7.57957334 7.12565781 -4.26886422 6.36556789 -1 8 C-0.67 5.36 -0.34 2.72 0 0 Z M-9 14 C-8.67673447 17.59679066 -8.67673447 17.59679066 -8 21 C-5.65466049 21.76956136 -5.65466049 21.76956136 -3 22 C-1.06345052 20.98029682 -1.06345052 20.98029682 0 19 C0.41679297 16.45769153 0.41679297 16.45769153 0 14 C-1.82703227 11.7508092 -1.82703227 11.7508092 -4.5 11.75 C-7.17296773 11.7508092 -7.17296773 11.7508092 -9 14 Z " fill="#4B40E0" transform="translate(361,185)"/>
<path d="M0 0 C5 0 5 0 7 1 C8.11375 0.79375 9.2275 0.5875 10.375 0.375 C14 0 14 0 16.375 1.25 C19.55345271 4.67294907 19.10643559 8.2500058 19.0625 12.6875 C19.05347656 13.86699219 19.04445313 15.04648438 19.03515625 16.26171875 C19.02355469 17.16535156 19.01195312 18.06898438 19 19 C17.02 19 15.04 19 13 19 C12.67 14.71 12.34 10.42 12 6 C10.35 6.33 8.7 6.66 7 7 C6.67 10.96 6.34 14.92 6 19 C4.02 19 2.04 19 0 19 C0 12.73 0 6.46 0 0 Z " fill="#4C40E1" transform="translate(691,192)"/>
<path d="M0 0 C2.5625 2.0625 2.5625 2.0625 4 4 C2.68 4.99 1.36 5.98 0 7 C-0.99 6.34 -1.98 5.68 -3 5 C-6.12026907 4.67497197 -8.14747535 4.48848521 -10.875 6.125 C-12.52854531 8.88090884 -12.39365568 10.85075452 -12 14 C-11.06402685 16.01951062 -11.06402685 16.01951062 -9 17 C-5.14353614 17.2804701 -1.69483919 17.18234854 2 16 C2.66 16.99 3.32 17.98 4 19 C-0.03072518 22.22458015 -2.82218484 23.66436975 -8.0390625 23.39453125 C-12.68757315 22.45927313 -15.45550891 19.81673664 -18 16 C-18.54613601 12.60820796 -18.53660917 9.39310446 -18 6 C-13.03814136 -0.61581151 -7.78440604 -2.04251388 0 0 Z " fill="#4C40E1" transform="translate(649,188)"/>
<path d="M0 0 C1.65 0 3.3 0 5 0 C5.33 4.29 5.66 8.58 6 13 C7.65 12.67 9.3 12.34 11 12 C11.33 8.04 11.66 4.08 12 0 C13.65 0 15.3 0 17 0 C18 1 18 1 18.11352539 2.76586914 C18.10828857 3.51473389 18.10305176 4.26359863 18.09765625 5.03515625 C18.09443359 5.84404297 18.09121094 6.65292969 18.08789062 7.48632812 C18.07951172 8.33646484 18.07113281 9.18660156 18.0625 10.0625 C18.05798828 10.91650391 18.05347656 11.77050781 18.04882812 12.65039062 C18.03700373 14.76695663 18.01906769 16.88348685 18 19 C12.54775387 19 7.38542291 18.9791678 2 18 C-0.7888628 15.2111372 -0.9460083 13.12270971 -1.1328125 9.23828125 C-1.13023437 8.27277344 -1.12765625 7.30726563 -1.125 6.3125 C-1.12757813 5.33925781 -1.13015625 4.36601562 -1.1328125 3.36328125 C-1 1 -1 1 0 0 Z " fill="#4B40E0" transform="translate(274,192)"/>
<path d="M0 0 C2.5625 2.0625 2.5625 2.0625 4 4 C2.68 4.99 1.36 5.98 0 7 C-0.99 6.34 -1.98 5.68 -3 5 C-6 4.5 -6 4.5 -9 5 C-11.09764165 6.51894806 -11.09764165 6.51894806 -12 9 C-11.77962372 12.67293796 -11.63033454 14.36966546 -9 17 C-5.15541573 17.21358801 -1.68379022 17.17881287 2 16 C2.66 16.99 3.32 17.98 4 19 C0.76153148 21.52758519 -1.38286749 22.92285844 -5.5 23.4375 C-10.17581422 22.85302322 -13.31783121 21.45787962 -16.875 18.375 C-18.64883231 14.6302429 -18.52354936 11.06477906 -18 7 C-16.63845797 3.5205037 -15.40926552 2.29233251 -12.375 0.125 C-7.98351341 -1.33882886 -4.44524985 -1.2821214 0 0 Z " fill="#4B40DF" transform="translate(398,188)"/>
<path d="M0 0 C2.8125 1.5625 2.8125 1.5625 5 4 C5.8125 7.75 5.8125 7.75 6 11 C1.71 11 -2.58 11 -7 11 C-6.01 12.485 -6.01 12.485 -5 14 C-2.36 13.67 0.28 13.34 3 13 C3.99 14.485 3.99 14.485 5 16 C0.90893759 18.97531812 -1.97061945 19.62867257 -7 19 C-9.75329021 17.20437595 -11.52627461 15.94745078 -13 13 C-13.39069343 8.85864965 -13.43382227 6.68813188 -11.1875 3.125 C-7.75660721 -0.20786729 -4.63551903 -0.4635519 0 0 Z M-5 4 C-5.99 5.485 -5.99 5.485 -7 7 C-4.69 7 -2.38 7 0 7 C0 6.34 0 5.68 0 5 C-1.65 4.67 -3.3 4.34 -5 4 Z " fill="#4B40DF" transform="translate(451,192)"/>
<path d="M0 0 C2.66796875 1.5390625 2.66796875 1.5390625 5 4 C5.37398847 6.81239326 5.48293015 8.97592155 5.3125 11.75 C5.28994141 12.44738281 5.26738281 13.14476562 5.24414062 13.86328125 C5.18547048 15.57644935 5.09579256 17.28850623 5 19 C2.72975032 19.08097324 0.45867925 19.13917704 -1.8125 19.1875 C-3.70935547 19.23970703 -3.70935547 19.23970703 -5.64453125 19.29296875 C-9 19 -9 19 -10.91796875 17.67578125 C-12.6534406 14.98799272 -12.51712074 13.10272445 -12 10 C-8.64223849 7.13602695 -5.31612964 6.50187554 -1 6 C-4.32534757 4.89155081 -6.62182575 5.15545644 -10 6 C-10.33 4.68 -10.66 3.36 -11 2 C-7.17369543 0.19938608 -4.22501011 -0.52812626 0 0 Z M-6 11 C-6 12.32 -6 13.64 -6 15 C-4.35 14.67 -2.7 14.34 -1 14 C-0.67 13.01 -0.34 12.02 0 11 C-1.98 11 -3.96 11 -6 11 Z " fill="#4B40E0" transform="translate(416,192)"/>
<path d="M0 0 C2.8125 1.5625 2.8125 1.5625 5 4 C5.8125 7.75 5.8125 7.75 6 11 C1.71 11 -2.58 11 -7 11 C-6.01 12.485 -6.01 12.485 -5 14 C-2.36 13.67 0.28 13.34 3 13 C3.99 14.485 3.99 14.485 5 16 C0.90893759 18.97531812 -1.97061945 19.62867257 -7 19 C-9.75329021 17.20437595 -11.52627461 15.94745078 -13 13 C-12.984375 10.94140625 -12.984375 10.94140625 -12.75 8.5625 C-12.68296875 7.78003906 -12.6159375 6.99757812 -12.546875 6.19140625 C-11.8956961 3.58203938 -11.10493912 2.63884546 -9 1 C-5.66660588 -0.11113137 -3.49519344 -0.34951934 0 0 Z M-5 4 C-5.99 5.485 -5.99 5.485 -7 7 C-4.36 7 -1.72 7 1 7 C-0.31201173 5.43750191 -0.31201173 5.43750191 -2 4 C-2.99 4 -3.98 4 -5 4 Z " fill="#4C40E1" transform="translate(339,192)"/>
<path d="M0 0 C2.0625 1.6875 2.0625 1.6875 3 4 C3 5.98 3 7.96 3 10 C-2.94 10.495 -2.94 10.495 -9 11 C-9 11.66 -9 12.32 -9 13 C-5.7 12.67 -2.4 12.34 1 12 C1 13.32 1 14.64 1 16 C-2.72579089 18.48386059 -4.58711402 18.3804212 -9 18 C-13.6 15.8 -13.6 15.8 -15 13 C-15.47856915 9.91656082 -15.54033846 7.07781025 -15 4 C-10.73520848 -1.46768144 -6.54655684 -2.1051673 0 0 Z M-8.6875 4.5 C-9.120625 4.995 -9.55375 5.49 -10 6 C-7.36 6 -4.72 6 -2 6 C-2.66 5.01 -3.32 4.02 -4 3 C-7.00259517 2.66781808 -7.00259517 2.66781808 -8.6875 4.5 Z " fill="#4B40E0" transform="translate(582,193)"/>
<path d="M0 0 C2.0625 1.6875 2.0625 1.6875 3 4 C3 5.98 3 7.96 3 10 C-1.29 10 -5.58 10 -10 10 C-7.46571562 13.21525355 -7.46571562 13.21525355 -4.95703125 13.07421875 C-4.24933594 12.94660156 -3.54164063 12.81898438 -2.8125 12.6875 C-1.554375 12.460625 -0.29625 12.23375 1 12 C1.33 12.99 1.66 13.98 2 15 C-0.53164264 17.43037694 -1.88820703 17.9878044 -5.4375 18.375 C-9.17673756 17.98139605 -11.04013032 17.26342975 -14 15 C-15.72370774 11.55258453 -15.50306672 7.76964661 -15 4 C-10.77243554 -1.63675261 -6.46525455 -1.51566407 0 0 Z M-8.6875 4.5 C-9.120625 4.995 -9.55375 5.49 -10 6 C-7.36 6 -4.72 6 -2 6 C-2.66 5.01 -3.32 4.02 -4 3 C-7.00259517 2.66781808 -7.00259517 2.66781808 -8.6875 4.5 Z " fill="#4B40E0" transform="translate(728,193)"/>
<path d="M0 0 C2.47888838 1.9280243 3.43312132 2.7275489 4.25 5.75 C4.24254565 9.43244686 4.03794405 12.6397152 1.875 15.6875 C-1.86503841 18.13290973 -5.41511959 18.12369659 -9.75 17.75 C-12.50329021 15.95437595 -14.27627461 14.69745078 -15.75 11.75 C-16.14069343 7.60864965 -16.18382227 5.43813188 -13.9375 1.875 C-9.87742435 -2.06907349 -5.05099537 -2.29590699 0 0 Z M-8.75 3.75 C-11.04637779 6.50895635 -11.04637779 6.50895635 -10.5 9.3125 C-9.91191948 11.90000567 -9.91191948 11.90000567 -7.75 13.75 C-4.44316534 13.46016731 -4.44316534 13.46016731 -1.75 11.75 C-1.50266863 7.60723125 -1.50266863 7.60723125 -2.75 3.75 C-5.66634129 3.4997843 -5.66634129 3.4997843 -8.75 3.75 Z " fill="#4B40E0" transform="translate(669.75,193.25)"/>
<path d="M0 0 C1.65 0 3.3 0 5 0 C6.65 3.3 8.3 6.6 10 10 C11.32 6.7 12.64 3.4 14 0 C15.65 0 17.3 0 19 0 C18.28585817 4.84458378 16.48136458 9.12983619 14.625 13.625 C14.16867187 14.7696875 14.16867187 14.7696875 13.703125 15.9375 C13.40148437 16.67226562 13.09984375 17.40703125 12.7890625 18.1640625 C12.51787598 18.82873535 12.24668945 19.4934082 11.96728516 20.17822266 C10.87676767 22.23209481 9.80893539 23.53887228 8 25 C4.90498792 25.25265405 2.79870027 25.39935013 0 24 C0.33 22.68 0.66 21.36 1 20 C2.65 19.67 4.3 19.34 6 19 C5.21496104 14.03711003 3.23023093 10.01435858 1.05859375 5.5234375 C0 3 0 3 0 0 Z " fill="#4B40DE" transform="translate(601,192)"/>
<path d="M0 0 C2.5 1.5 2.5 1.5 4 4 C4.54767512 7.10349233 4.58127807 9.89985031 4 13 C2.12379387 15.50160818 0.76108697 16.61945652 -2 18 C-6.99220285 18.37677003 -9.98020143 18.07396361 -14 15 C-15.72515631 11.54968739 -15.49677924 7.77283696 -15 4 C-11.04546489 -1.45453118 -6.20918655 -1.56166664 0 0 Z M-10 6 C-9.67673447 9.59679066 -9.67673447 9.59679066 -9 13 C-6.65466049 13.76956136 -6.65466049 13.76956136 -4 14 C-2.06345052 12.98029682 -2.06345052 12.98029682 -1 11 C-0.58320703 8.45769153 -0.58320703 8.45769153 -1 6 C-2.82703227 3.7508092 -2.82703227 3.7508092 -5.5 3.75 C-8.17296773 3.7508092 -8.17296773 3.7508092 -10 6 Z " fill="#4B40E0" transform="translate(496,193)"/>
<path d="M0 0 C6.6 0 13.2 0 20 0 C20 1.65 20 3.3 20 5 C17.69 5 15.38 5 13 5 C13 11.27 13 17.54 13 24 C11.35 24 9.7 24 8 24 C8 17.73 8 11.46 8 5 C5.36 5 2.72 5 0 5 C0 3.35 0 1.7 0 0 Z " fill="#4C40E1" transform="translate(238,187)"/>
<path d="M0 0 C0.33 0.66 0.66 1.32 1 2 C0.01 2.99 -0.98 3.98 -2 5 C-3.98 4.34 -5.96 3.68 -8 3 C-8 3.99 -8 4.98 -8 6 C-7.071875 6.103125 -6.14375 6.20625 -5.1875 6.3125 C-2 7 -2 7 -0.125 8.25 C1.45099784 10.70155219 1.4997811 12.144108 1 15 C-1.38207755 17.76320996 -2.84814927 17.9864419 -6.5 18.3125 C-9.6490748 18.03133261 -11.38237988 17.67527688 -14 16 C-13.67 14.68 -13.34 13.36 -13 12 C-10.36 12.33 -7.72 12.66 -5 13 C-7.866158 10.97940892 -7.866158 10.97940892 -10.6875 9.75 C-13 8 -13 8 -13.5625 5 C-13 2 -13 2 -11.5625 0.0625 C-7.72418842 -1.52899505 -3.98187467 -1.07421771 0 0 Z " fill="#4B40DE" transform="translate(309,193)"/>
<path d="M0 0 C1.65 0 3.3 0 5 0 C6.32 3.63 7.64 7.26 9 11 C10.32 7.37 11.64 3.74 13 0 C14.98 0 16.96 0 19 0 C18.02241999 2.79223159 17.04301077 5.58379772 16.0625 8.375 C15.78470703 9.1690625 15.50691406 9.963125 15.22070312 10.78125 C14.81948242 11.92207031 14.81948242 11.92207031 14.41015625 13.0859375 C14.16402588 13.7876709 13.91789551 14.4894043 13.66430664 15.21240234 C13 17 13 17 12 19 C10.02 19 8.04 19 6 19 C4.99394407 16.39802798 3.99497475 13.79370638 3 11.1875 C2.57074219 10.08051758 2.57074219 10.08051758 2.1328125 8.95117188 C1.86210938 8.23896484 1.59140625 7.52675781 1.3125 6.79296875 C1.06113281 6.1383667 0.80976562 5.48376465 0.55078125 4.80932617 C0 3 0 3 0 0 Z " fill="#4B40DF" transform="translate(548,192)"/>
<path d="M0 0 C0.33 1.32 0.66 2.64 1 4 C-0.65 4.33 -2.3 4.66 -4 5 C-4 5.99 -4 6.98 -4 8 C-2.68 8 -1.36 8 0 8 C0 9.32 0 10.64 0 12 C-1.32 12 -2.64 12 -4 12 C-4 16.62 -4 21.24 -4 26 C-5.65 26 -7.3 26 -9 26 C-9 21.38 -9 16.76 -9 12 C-9.99 12 -10.98 12 -12 12 C-12 10.68 -12 9.36 -12 8 C-11.01 8 -10.02 8 -9 8 C-9.0825 7.236875 -9.165 6.47375 -9.25 5.6875 C-9 3 -9 3 -7.3125 1.1875 C-4.65769564 -0.17577792 -2.94425817 -0.24535485 0 0 Z " fill="#4B40E0" transform="translate(480,185)"/>
<path d="M0 0 C1.65 0 3.3 0 5 0 C5 1.65 5 3.3 5 5 C6.65 5 8.3 5 10 5 C10 6.32 10 7.64 10 9 C8.35 9 6.7 9 5 9 C5 11.97 5 14.94 5 18 C6.65 18 8.3 18 10 18 C10.33 19.32 10.66 20.64 11 22 C8.20129973 23.39935013 6.09501208 23.25265405 3 23 C1.3203125 21.83984375 1.3203125 21.83984375 0 20 C-0.29296875 17.30078125 -0.29296875 17.30078125 -0.1875 14.3125 C-0.16042969 13.31863281 -0.13335937 12.32476562 -0.10546875 11.30078125 C-0.07066406 10.54152344 -0.03585937 9.78226563 0 9 C-0.66 9 -1.32 9 -2 9 C-2 7.68 -2 6.36 -2 5 C-1.34 5 -0.68 5 0 5 C0 3.35 0 1.7 0 0 Z " fill="#4C40E1" transform="translate(314,188)"/>
<path d="M0 0 C1.65 0 3.3 0 5 0 C5.33 0.66 5.66 1.32 6 2 C6.99 1.34 7.98 0.68 9 0 C9.99 0 10.98 0 12 0 C12 1.65 12 3.3 12 5 C11.20207031 5.20367187 10.40414062 5.40734375 9.58203125 5.6171875 C6.71612757 6.7697488 6.71612757 6.7697488 6.07421875 9.8203125 C5.94660156 10.91085938 5.81898438 12.00140625 5.6875 13.125 C5.54699219 14.22070312 5.40648437 15.31640625 5.26171875 16.4453125 C5.17535156 17.28835937 5.08898437 18.13140625 5 19 C3.35 19 1.7 19 0 19 C0 12.73 0 6.46 0 0 Z " fill="#4B40DF" transform="translate(677,192)"/>
<path d="M0 0 C3.66666667 0 7.33333333 0 11 0 C11.3125 2.3125 11.3125 2.3125 11 5 C9.7934375 5.556875 9.7934375 5.556875 8.5625 6.125 C5.74786765 7.74662612 5.74786765 7.74662612 5.4453125 10.62890625 C5.20971978 13.42389256 5.05236884 16.19588684 5 19 C3.35 19 1.7 19 0 19 C0 12.73 0 6.46 0 0 Z " fill="#4B40DF" transform="translate(504,192)"/>
<path d="M0 0 C3.66666667 0 7.33333333 0 11 0 C11.3125 2.3125 11.3125 2.3125 11 5 C9.7934375 5.556875 9.7934375 5.556875 8.5625 6.125 C5.74786765 7.74662612 5.74786765 7.74662612 5.4453125 10.62890625 C5.20971978 13.42389256 5.05236884 16.19588684 5 19 C3.35 19 1.7 19 0 19 C0 12.73 0 6.46 0 0 Z " fill="#4B40DF" transform="translate(260,192)"/>
<path d="M0 0 C3.66666667 0 7.33333333 0 11 0 C11 1.65 11 3.3 11 5 C9.35 5.33 7.7 5.66 6 6 C5.67 10.29 5.34 14.58 5 19 C3.35 19 1.7 19 0 19 C0 12.73 0 6.46 0 0 Z " fill="#4C40E1" transform="translate(735,192)"/>
<path d="M0 0 C3.66666667 0 7.33333333 0 11 0 C11 1.65 11 3.3 11 5 C9.35 5.33 7.7 5.66 6 6 C5.67 10.29 5.34 14.58 5 19 C3.35 19 1.7 19 0 19 C0 12.73 0 6.46 0 0 Z " fill="#4C40E1" transform="translate(589,192)"/>
<path d="M0 0 C3.66666667 0 7.33333333 0 11 0 C11 1.65 11 3.3 11 5 C9.35 5.66 7.7 6.32 6 7 C5.67 10.96 5.34 14.92 5 19 C3.35 19 1.7 19 0 19 C0 12.73 0 6.46 0 0 Z " fill="#4C40E1" transform="translate(426,192)"/>
</svg>
