<svg width="167" height="120" viewBox="0 0 167 120" fill="none" xmlns="http://www.w3.org/2000/svg">
<rect width="166.667" height="120" rx="16" fill="#F4F4F7"/>
<path d="M105.9 88.3868V86.5653C105.9 83.0695 103.604 79.9885 100.255 78.9879L90.9798 76.2174C89.3655 75.7353 88.2595 74.2504 88.2595 72.5658V64.1548H76.7425V72.5657C76.7425 74.2503 75.6364 75.7352 74.0223 76.2173L64.7473 78.9878C61.3978 79.9883 59.1025 83.0693 59.1025 86.5652V88.3867C59.1025 89.8643 60.3004 91.0622 61.778 91.0622H103.224C104.702 91.0623 105.9 89.8644 105.9 88.3868Z" fill="#FFE8C8"/>
<path d="M76.7425 64.1548V72.5657C76.7425 74.2503 75.6364 75.7352 74.0223 76.2173L64.7473 78.9878C61.3978 79.9883 59.1025 83.0693 59.1025 86.5652V88.3868C59.1025 89.8644 60.3004 91.0623 61.778 91.0623H62.6579C62.5874 90.8225 62.5479 90.5694 62.5479 90.3068V88.4853C62.5479 84.9895 64.8432 81.9085 68.1927 80.9079L77.4677 78.1374C79.0819 77.6553 80.1879 76.5298 80.1879 75.3533V75.3335C80.1879 74.346 81.0102 73.5474 81.9963 73.5978C82.2197 73.6092 82.4435 73.6149 82.6675 73.6149C84.5995 73.6149 86.5093 73.196 88.2594 72.3963V64.1548H76.7425Z" fill="#FAB684"/>
<path d="M69.9459 85.7549H96.1665V91.0624H69.9459V85.7549Z" fill="#ECF4FF"/>
<path d="M69.9459 85.7549H72.7673V91.0624H69.9459V85.7549Z" fill="#CBE2FF"/>
<path d="M64.9791 53.131H100.023V46.4592C100.023 36.7822 92.1779 28.9375 82.5009 28.9375C72.8239 28.9375 64.9791 36.7822 64.9791 46.4592V53.131Z" fill="#ECF4FF"/>
<path d="M84.2208 29.0216C83.6549 28.9665 83.0813 28.9375 82.5009 28.9375C72.8239 28.9375 64.9791 36.7822 64.9791 46.4592V53.131H68.4189V46.4592C68.4189 37.3626 75.3511 29.8859 84.2208 29.0216Z" fill="#CBE2FF"/>
<path d="M68.4188 56.7834H65.6886C64.1642 56.7834 62.9285 55.5476 62.9285 54.0233V52.2386C62.9285 50.7143 64.1642 49.4785 65.6886 49.4785H68.4188V56.7834Z" fill="#FAB684"/>
<path d="M96.5829 49.4785H99.3131C100.838 49.4785 102.073 50.7143 102.073 52.2386V54.0233C102.073 55.5476 100.838 56.7834 99.3131 56.7834H96.5829V49.4785Z" fill="#FAB684"/>
<path d="M88.777 69.281L88.1489 69.6442C84.81 71.5754 80.7013 71.607 77.333 69.7276L76.4509 69.2354C71.1102 66.2554 67.8004 60.6185 67.8004 54.5026V51.5085C67.8004 43.3896 74.382 36.8079 82.501 36.8079C90.6199 36.8079 97.2017 43.3895 97.2017 51.5085V54.6766C97.2015 60.6996 93.9908 66.2657 88.777 69.281Z" fill="#FFE8C8"/>
<path d="M80.7784 69.7276L79.8963 69.2354C74.5555 66.2554 71.2458 60.6185 71.2458 54.5026V51.5085C71.2458 43.9725 76.9167 37.762 84.2237 36.9089C83.6585 36.8429 83.0839 36.8079 82.501 36.8079C74.3822 36.8079 67.8004 43.3895 67.8004 51.5085V54.5026C67.8004 60.6185 71.1103 66.2554 76.4509 69.2354L77.333 69.7276C79.5115 70.9432 81.9998 71.3581 84.3892 70.9779C83.1399 70.7789 81.9168 70.3629 80.7784 69.7276Z" fill="#FAB684"/>
<path d="M94.0403 67.5537L101.465 74.9787C102.203 75.7169 103.4 75.7169 104.138 74.9787C104.876 74.2406 104.876 73.044 104.138 72.3059L96.7132 64.8809L94.0403 67.5537Z" fill="#918291"/>
<path d="M96.7132 64.8809L96.2886 61.0593C96.113 59.4785 94.5378 58.4515 93.0205 58.9283C90.6688 59.6674 88.8268 61.5093 88.0878 63.8609C87.611 65.3781 88.6381 66.9534 90.2188 67.129L94.0405 67.5536L96.7132 64.8809Z" fill="#FE8187"/>
<path d="M90.5061 61.4427C90.6986 60.8303 90.9672 60.2537 91.2987 59.7209C89.7855 60.6626 88.6343 62.1216 88.0877 63.8609C87.6108 65.3782 88.638 66.9534 90.2187 67.1291L94.0403 67.5537L96.4586 65.1354L92.637 64.7108C91.0563 64.5352 90.0292 62.9601 90.5061 61.4427Z" fill="#FF646F"/>
<path d="M102.977 73.4672L95.5517 66.0422L94.0402 67.5537L101.465 74.9787C102.203 75.7169 103.4 75.7169 104.138 74.9787C104.419 74.6981 104.592 74.3512 104.659 73.9884C104.068 74.0981 103.434 73.9247 102.977 73.4672Z" fill="#7A6D79"/>
<path d="M61.3454 70.3724C61.8479 70.2261 62.3917 70.0679 62.9382 69.9089C64.1715 69.55 64.1717 67.8025 62.9383 67.4436L61.3462 66.9804C60.7555 66.8085 60.294 66.3474 60.1222 65.7569C59.9759 65.2544 59.8177 64.7106 59.6587 64.1641C59.2998 62.9307 57.5523 62.9306 57.1934 64.164L56.73 65.7561C56.5582 66.3467 56.097 66.8084 55.5064 66.9801C54.9945 67.1291 54.4527 67.2867 53.9137 67.4436C52.6803 67.8025 52.6803 69.55 53.9138 69.9089L55.5059 70.3722C56.0965 70.5441 56.5582 71.0052 56.7299 71.5959C56.8789 72.1077 57.0365 72.6496 57.1934 73.1887C57.5523 74.4221 59.2998 74.4221 59.6587 73.1886L60.1219 71.5965C60.2938 71.0057 60.7549 70.5442 61.3454 70.3724Z" fill="#FCE3A0"/>
<path d="M59.0728 70.3721L57.4807 69.9087C56.2473 69.5499 56.2472 67.8024 57.4805 67.4435C58.0195 67.2866 58.5614 67.129 59.0733 66.98C59.5829 66.8316 59.9952 66.467 60.2093 65.9904C60.1754 65.9149 60.1455 65.8372 60.122 65.7566C59.9758 65.2541 59.8175 64.7104 59.6585 64.1639C59.2997 62.9305 57.5522 62.9304 57.1933 64.1637L56.7299 65.7559C56.558 66.3465 56.0969 66.8081 55.5063 66.9799C54.9944 67.1289 54.4525 67.2865 53.9135 67.4434C52.6802 67.8022 52.6802 69.5497 53.9137 69.9086L55.5058 70.372C56.0964 70.5439 56.558 71.005 56.7298 71.5956C56.8788 72.1075 57.0364 72.6494 57.1933 73.1885C57.5522 74.4219 59.2997 74.4219 59.6585 73.1884L60.1219 71.5962C60.1454 71.5154 60.1755 71.4375 60.2095 71.3617C59.9954 70.8851 59.5827 70.5205 59.0728 70.3721Z" fill="#F7BD61"/>
<path d="M111.16 42.6714C111.663 42.5252 112.207 42.3669 112.753 42.2079C113.987 41.8491 113.987 40.1016 112.753 39.7427L111.161 39.2794C110.571 39.1076 110.109 38.6464 109.937 38.0559C109.791 37.5534 109.633 37.0097 109.474 36.4632C109.115 35.2298 107.367 35.2297 107.008 36.4631L106.545 38.0552C106.373 38.6458 105.912 39.1074 105.321 39.2792C104.81 39.4282 104.268 39.5858 103.729 39.7427C102.495 40.1016 102.495 41.8491 103.729 42.2079L105.321 42.6713C105.912 42.8432 106.373 43.3043 106.545 43.8949C106.694 44.4068 106.852 44.9487 107.008 45.4878C107.367 46.7212 109.115 46.7212 109.474 45.4877L109.937 43.8956C110.109 43.3049 110.57 42.8433 111.16 42.6714Z" fill="#FCE3A0"/>
<path d="M108.888 42.6712L107.296 42.2078C106.062 41.8489 106.062 40.1014 107.295 39.7426C107.834 39.5857 108.376 39.4281 108.888 39.2791C109.398 39.1307 109.81 38.7661 110.024 38.2894C109.99 38.2139 109.96 38.1363 109.937 38.0557C109.791 37.5532 109.632 37.0094 109.473 36.4629C109.115 35.2296 107.367 35.2294 107.008 36.4628L106.545 38.0549C106.373 38.6456 105.912 39.1072 105.321 39.2789C104.809 39.4279 104.267 39.5856 103.728 39.7424C102.495 40.1013 102.495 41.8488 103.729 42.2077L105.321 42.6711C105.911 42.8429 106.373 43.3041 106.545 43.8947C106.694 44.4066 106.851 44.9484 107.008 45.4876C107.367 46.7209 109.115 46.7209 109.473 45.4874L109.937 43.8953C109.96 43.8144 109.99 43.7366 110.024 43.6608C109.81 43.1843 109.398 42.8196 108.888 42.6712Z" fill="#F7BD61"/>
<path d="M77.5314 52.7823L77.2554 52.9642C76.1328 53.704 74.6819 53.704 73.5592 52.9642L73.2832 52.7823C72.851 52.4975 72.2695 52.6168 71.9844 53.049C71.6995 53.4814 71.8189 54.0628 72.2513 54.3478L72.5273 54.5298C73.4022 55.1063 74.4047 55.3945 75.4073 55.3945C76.4099 55.3945 77.4125 55.1062 78.2873 54.5297L78.5633 54.3478C78.9955 54.0629 79.115 53.4814 78.8302 53.049C78.545 52.6169 77.9637 52.4973 77.5314 52.7823Z" fill="#FAB684"/>
<path d="M92.4745 54.5294L92.7505 54.3475C93.1828 54.0627 93.3023 53.4812 93.0174 53.0488C92.7324 52.6167 92.1509 52.497 91.7187 52.782L91.4427 52.9639C90.32 53.7038 88.8692 53.7038 87.7464 52.9639L87.4704 52.782C87.0383 52.4973 86.4568 52.6165 86.1717 53.0488C85.8868 53.4812 86.0062 54.0625 86.4385 54.3475L86.7145 54.5295C87.5894 55.106 88.5919 55.3943 89.5945 55.3943C90.5972 55.3943 91.5998 55.106 92.4745 54.5294Z" fill="#FAB684"/>
<path d="M85.3809 64.1559L85.6569 63.974C86.0892 63.6891 86.2087 63.1076 85.9238 62.6753C85.6388 62.2431 85.0573 62.1235 84.625 62.4085L84.349 62.5904C83.2264 63.3303 81.7755 63.3303 80.6528 62.5904L80.3768 62.4085C79.9447 62.1238 79.3632 62.243 79.078 62.6753C78.7932 63.1076 78.9125 63.689 79.3449 63.974L79.6209 64.156C80.4958 64.7325 81.4983 65.0208 82.5009 65.0208C83.5035 65.0208 84.5062 64.7324 85.3809 64.1559Z" fill="#FAB684"/>
</svg>
