<svg width="167" height="120" viewBox="0 0 167 120" fill="none" xmlns="http://www.w3.org/2000/svg">
<rect width="166.667" height="120" rx="16" fill="#F4F4F7"/>
<path d="M114.083 56.2349V59.9999C114.083 62.0799 112.398 63.7649 110.318 63.7649H101.532V62.5049C101.532 61.8149 100.972 61.2549 100.282 61.2549H66.3846C65.6946 61.2549 65.1346 61.8149 65.1346 62.5049V63.7649H56.3483C54.2683 63.7649 52.5833 62.0799 52.5833 59.9999V56.2349H114.083Z" fill="#70C6F8"/>
<path d="M110.318 36.1523H101.532V39.9236C101.532 40.6136 100.972 41.1736 100.282 41.1736H66.3846C65.6946 41.1736 65.1346 40.6136 65.1346 39.9236V36.1523H56.3483C54.2683 36.1523 52.5833 37.8386 52.5833 39.9186V56.2348H114.083V39.9186C114.083 37.8386 112.398 36.1523 110.318 36.1523Z" fill="#8FD8FB"/>
<path d="M106.553 46.1938C107.94 46.1938 109.063 47.3176 109.063 48.7038C109.063 50.0901 107.94 51.2138 106.553 51.2138C105.166 51.2138 104.042 50.0901 104.042 48.7038C104.042 47.3176 105.166 46.1938 106.553 46.1938Z" fill="#F3E872"/>
<path d="M101.532 65.0249C101.532 65.7161 100.972 66.2749 100.282 66.2749H66.3846C65.6946 66.2749 65.1346 65.7161 65.1346 65.0249C65.1346 64.1435 65.1346 63.3863 65.1346 62.5049C65.1346 61.8149 65.6946 61.2549 66.3846 61.2549H100.282C100.972 61.2549 101.532 61.8149 101.532 62.5049V65.0249Z" fill="#8FACE0"/>
<path d="M101.532 36.1523V39.9236C101.532 40.6136 100.972 41.1736 100.282 41.1736H66.3846C65.6946 41.1736 65.1346 40.6136 65.1346 39.9236V36.1523H101.532Z" fill="#8FACE0"/>
<path d="M96.5121 51.2138C97.8983 51.2138 99.0221 50.0901 99.0221 48.7038C99.0221 47.3176 97.8983 46.1938 96.5121 46.1938C95.1258 46.1938 94.0021 47.3176 94.0021 48.7038C94.0021 50.0901 95.1258 51.2138 96.5121 51.2138Z" fill="#E06E7E"/>
<path d="M70.7823 85.0969C68.7089 85.0969 67.022 83.4101 67.022 81.3368C67.022 80.6465 67.5818 80.0868 68.272 80.0868C68.9623 80.0868 69.522 80.6465 69.522 81.3368C69.522 82.0316 70.0873 82.5969 70.7823 82.5969C71.4773 82.5969 72.0425 82.0316 72.0425 81.3368V71.2959C72.0425 70.6056 72.6023 70.0459 73.2925 70.0459C73.9828 70.0459 74.5425 70.6056 74.5425 71.2959V81.3368C74.5425 83.4101 72.8557 85.0969 70.7823 85.0969Z" fill="#70C6F8"/>
<path d="M95.8843 85.0969C93.811 85.0969 92.1241 83.4101 92.1241 81.3368V71.2959C92.1241 70.6056 92.6838 70.0459 93.3741 70.0459C94.0643 70.0459 94.6241 70.6056 94.6241 71.2959V81.3368C94.6241 82.0316 95.1893 82.5969 95.8843 82.5969C96.5793 82.5969 97.1446 82.0316 97.1446 81.3368C97.1446 80.6465 97.7043 80.0868 98.3946 80.0868C99.0848 80.0868 99.6446 80.6465 99.6446 81.3368C99.6446 83.4101 97.9577 85.0969 95.8843 85.0969Z" fill="#70C6F8"/>
<path d="M78.3129 77.5663C77.6227 77.5663 77.0629 77.0065 77.0629 76.3163V71.2959C77.0629 70.6056 77.6227 70.0459 78.3129 70.0459C79.0032 70.0459 79.5629 70.6056 79.5629 71.2959V76.3163C79.5629 77.0066 79.0032 77.5663 78.3129 77.5663Z" fill="#70C6F8"/>
<path d="M88.3537 77.5663C87.6634 77.5663 87.1037 77.0065 87.1037 76.3163V71.2959C87.1037 70.6056 87.6634 70.0459 88.3537 70.0459C89.0439 70.0459 89.6037 70.6056 89.6037 71.2959V76.3163C89.6037 77.0066 89.0441 77.5663 88.3537 77.5663Z" fill="#70C6F8"/>
<path d="M83.3333 81.3316C82.6431 81.3316 82.0833 80.7719 82.0833 80.0816V71.2959C82.0833 70.6056 82.6431 70.0459 83.3333 70.0459C84.0236 70.0459 84.5833 70.6056 84.5833 71.2959V80.0816C84.5833 80.772 84.0236 81.3316 83.3333 81.3316Z" fill="#70C6F8"/>
</svg>
