<svg width="167" height="120" viewBox="0 0 167 120" fill="none" xmlns="http://www.w3.org/2000/svg">
<rect width="166.667" height="120" rx="16" fill="#F4F4F7"/>
<path d="M55.4276 33.1326H52.2692V41.3737H55.4276V33.1326Z" fill="#FF6137"/>
<path d="M59.8477 45.5312V60.5952C59.8477 62.2401 61.1811 63.5735 62.826 63.5735C64.4708 63.5735 65.8042 62.2401 65.8042 60.5952V56.152C65.8042 54.609 67.055 53.3582 68.598 53.3582C70.141 53.3582 71.3917 54.6091 71.3917 56.152V58.2951C71.3917 59.9939 72.7687 61.371 74.4676 61.371C76.1663 61.371 77.5435 59.994 77.5435 58.2951V45.5312H59.8477Z" fill="#FF434D"/>
<path d="M77.5441 45.5317H59.8477V48.5267H77.5441V45.5317Z" fill="#DD3646"/>
<path d="M83.1668 69.4999V59.6082C83.1668 54 82.6667 54.5 87.6668 54.4999C90.1668 54.4999 102.667 54.4998 110.667 54.4999C115.167 54.5 114.667 54.8078 114.667 50.4999C114.667 46.192 114.667 43.6666 114.667 40.4999C114.667 36.7605 115.004 36.9999 111.667 36.9999C109.267 36.9999 109 36.9999 109.167 36.9999" stroke="#546F7A" stroke-width="3"/>
<path d="M107.529 45.4859H57.2995C56.2657 45.4859 55.4276 44.6478 55.4276 43.614V30.8917C55.4276 29.8579 56.2657 29.0198 57.2995 29.0198H107.529C108.563 29.0198 109.401 29.8579 109.401 30.8917V43.614C109.401 44.648 108.563 45.4859 107.529 45.4859Z" fill="#FFD039"/>
<path d="M107.529 42.3663H57.2995C56.2657 42.3663 55.4276 41.5281 55.4276 40.4944V43.6141C55.4276 44.6479 56.2657 45.486 57.2995 45.486H107.529C108.563 45.486 109.401 44.6479 109.401 43.6141V40.4945C109.401 41.5284 108.563 42.3663 107.529 42.3663Z" fill="#FFAE47"/>
<path d="M83.4297 90.9802C81.2581 90.9802 79.4978 89.2198 79.4978 87.0483V67.147H87.3617V87.0483C87.3616 89.2198 85.6013 90.9802 83.4297 90.9802Z" fill="#546F7A"/>
<path d="M84.2418 67.147V87.0483C84.2418 88.6655 83.2652 90.0541 81.8698 90.658C82.3482 90.865 82.8753 90.9802 83.4297 90.9802C85.6013 90.9802 87.3616 89.2198 87.3616 87.0483V67.147H84.2418Z" fill="#475D63"/>
<path d="M91.2475 76.3436L93.525 77.3643C94.4682 77.7871 95.223 78.5418 95.6457 79.4851L96.6665 81.7626L97.6872 79.4851C98.11 78.5418 98.8647 77.7871 99.808 77.3643L102.085 76.3436L99.808 75.3228C98.8647 74.9001 98.11 74.1453 97.6872 73.2021L96.6665 70.9246L95.6457 73.2021C95.223 74.1453 94.4682 74.9001 93.525 75.3228L91.2475 76.3436Z" fill="#FFD039"/>
<path d="M103.483 61.2437L105.76 62.2645C106.703 62.6872 107.458 63.442 107.881 64.3852L108.902 66.6627L109.922 64.3852C110.345 63.442 111.1 62.6872 112.043 62.2645L114.321 61.2437L112.043 60.223C111.1 59.8002 110.345 59.0455 109.922 58.1022L108.902 55.8247L107.881 58.1022C107.458 59.0453 106.703 59.8002 105.76 60.223L103.483 61.2437Z" fill="#FFD039"/>
<path d="M67.912 75.4485C67.912 78.2749 65.6208 80.566 62.7945 80.566C59.9681 80.566 57.677 78.2749 57.677 75.4485C57.677 72.6222 62.7945 66.7227 62.7945 66.7227C62.7945 66.7227 67.912 72.6222 67.912 75.4485Z" fill="#FF434D"/>
<path d="M62.7944 66.7227C62.7944 66.7227 62.1061 67.5164 61.2346 68.6605C62.7399 70.6365 64.7922 73.6588 64.7922 75.4485C64.7922 77.7308 63.2978 79.6633 61.2346 80.323C61.7264 80.4803 62.2503 80.566 62.7944 80.566C65.6208 80.566 67.9119 78.2749 67.9119 75.4485C67.9119 72.6222 62.7944 66.7227 62.7944 66.7227Z" fill="#DD3646"/>
</svg>
