<svg width="167" height="120" viewBox="0 0 167 120" fill="none" xmlns="http://www.w3.org/2000/svg">
<rect width="166.667" height="120" rx="16" fill="#F4F4F7"/>
<path d="M101.456 86.1654C101.637 88.7467 99.568 90.9334 96.9546 90.9334H59.0453C56.432 90.9334 54.3626 88.7467 54.544 86.1654L55.1946 76.9494C55.5893 72.4587 58.5013 68.5974 62.672 67.0081L70.384 64.0534L70.5333 64.2667C71.2586 65.4081 72.208 66.4747 73.4346 67.2534C74.6613 68.0427 76.1653 68.5334 78 68.5334C81.68 68.5334 84.0053 66.5494 85.4666 64.2667L85.6053 64.0427L93.328 67.0081C97.4986 68.5974 100.411 72.4587 100.805 76.9494L101.456 86.1654Z" fill="#C14A4A"/>
<path d="M85.6053 64.0427L85.4666 64.2667C84.0053 66.5493 81.68 68.5333 78 68.5333C76.1653 68.5333 74.6613 68.0427 73.4346 67.2533C72.208 66.4747 71.2586 65.408 70.5333 64.2667L70.384 64.0533L70.736 63.9147C71.856 63.488 72.592 62.4107 72.592 61.2267V60H83.408V61.2267C83.408 62.4107 84.144 63.488 85.264 63.9147L85.6053 64.0427Z" fill="#F2BDAB"/>
<path d="M89.2106 46.624C90.1066 47.1574 90.736 48.0747 90.8 49.1627V49.3334C90.8 51.104 89.3706 52.5334 87.6 52.5334C87.6 58.304 83.4613 62.1334 78 62.1334C72.5386 62.1334 68.4 58.304 68.4 52.5334C66.6293 52.5334 65.2 51.104 65.2 49.3334V49.1627C65.264 48.0747 65.8933 47.1574 66.7893 46.624H89.2106Z" fill="#FACBB6"/>
<path d="M88.6666 42.9333V37.92C88.6666 34.016 85.5093 30.848 81.616 30.8267H74.384C70.4906 30.848 67.3333 34.016 67.3333 37.92V42.9333H88.6666Z" fill="#E59619"/>
<path d="M90.8 40.8V43.2C90.8 45.3429 89.2885 47.1861 87.185 47.5968C85.2757 47.9691 82.3872 48.2667 78 48.2667C73.6128 48.2667 70.7242 47.9691 68.8149 47.5968C66.7114 47.1861 65.2 45.3429 65.2 43.2V40.8C65.2 40.2133 65.68 39.7333 66.2666 39.7333H67.7386C68.1482 39.7333 68.5226 39.9659 68.705 40.3328C69.2512 41.4325 70.6144 41.8901 71.6842 41.2875C72.9834 40.5557 73.8858 39.1989 73.9786 37.6107L74.384 30.8053C74.4266 30.016 75.0133 29.3653 75.792 29.2373C76.4533 29.1307 77.1893 29.0667 78 29.0667C78.8106 29.0667 79.5466 29.1307 80.208 29.2373C80.9866 29.3653 81.5733 30.016 81.616 30.8053L82.0213 37.6107C82.096 38.8053 82.6186 39.872 83.4293 40.6293C83.6928 40.8789 83.9872 41.0976 84.305 41.2779C85.3792 41.888 86.752 41.4261 87.3013 40.32C87.4795 39.9605 87.8464 39.7333 88.2474 39.7333H89.7333C90.32 39.7333 90.8 40.2133 90.8 40.8Z" fill="#FEB91C"/>
<path d="M70.5333 63.9893V78.1333H65.2V66.0373L70.5333 63.9893Z" fill="#E59619"/>
<path d="M90.8 66.0373V78.1333H85.4666V63.9893L90.8 66.0373Z" fill="#E59619"/>
<path d="M63.0667 90.9333V78.1333C63.0667 77.5445 63.5445 77.0667 64.1333 77.0667H91.8667C92.4555 77.0667 92.9333 77.5445 92.9333 78.1333V90.9333H63.0667Z" fill="#FEB91C"/>
<path d="M98.2667 72.8V45.0667C98.2667 43.8933 99.2267 42.9333 100.4 42.9333H105.285C105.392 42.9333 105.488 43.0187 105.488 43.136C105.488 43.5627 104.293 44.544 104.293 44.544C104.187 44.6613 104.208 44.8534 104.336 44.9494L105.819 46.048C105.947 46.1333 105.968 46.304 105.883 46.432L104.784 47.9573C104.699 48.0747 104.72 48.2453 104.848 48.3413L106.352 49.4507C106.48 49.5467 106.501 49.7173 106.416 49.8453L105.317 51.36C105.221 51.488 105.253 51.6587 105.371 51.744L106.885 52.864C107.013 52.96 107.035 53.1307 106.949 53.248L105.851 54.7734C105.755 54.9014 105.787 55.072 105.904 55.1573L107.419 56.2774C107.547 56.3627 107.568 56.544 107.483 56.6614L106.384 58.1867C106.288 58.3147 106.32 58.4854 106.437 58.5707L107.952 59.6907C108.08 59.776 108.101 59.9573 108.016 60.0747L106.917 61.6C106.821 61.7174 106.853 61.888 106.971 61.984L108.485 63.0934C108.603 63.1894 108.635 63.36 108.549 63.4773L107.451 65.0027C107.355 65.1307 107.387 65.3014 107.504 65.3974L109.019 66.5067C109.136 66.6027 109.168 66.7733 109.083 66.8907L107.984 68.416C107.888 68.544 107.92 68.7147 108.037 68.8107L109.669 70.016C109.733 70.0587 109.776 70.1334 109.787 70.208L110.459 77.184L98.2667 72.8Z" fill="#D8D8D8"/>
<path d="M107.867 85.6001H108.933V89.8668L107.867 90.9334H101.467L100.4 89.8668V85.6001H101.467C101.467 86.1868 101.947 86.6668 102.533 86.6668H106.8C107.387 86.6668 107.867 86.1868 107.867 85.6001Z" fill="#3A404C"/>
<path d="M111.643 78.6027L107.44 73.5681C107.035 73.0774 106.437 72.8 105.797 72.8H98.2666C97.68 72.8 97.2 73.28 97.2 73.8667V88.8C97.2 89.9734 98.16 90.9334 99.3333 90.9334H101.467V78.1334C101.467 77.5467 101.947 77.0667 102.533 77.0667H104.304C104.613 77.0667 104.923 77.2054 105.125 77.4507L107.621 80.448C107.781 80.64 107.867 80.8854 107.867 81.1307V90.9334H110C111.173 90.9334 112.133 89.9734 112.133 88.8V79.968C112.133 79.4774 111.963 78.9867 111.643 78.6027Z" fill="#FEB91C"/>
<path d="M73.6619 44.9407C74.9013 45.0239 76.3605 45.0665 78 45.0665C79.6395 45.0665 81.0987 45.0239 82.3381 44.9407C82.9259 44.9001 83.3707 44.3913 83.3312 43.8047C83.2907 43.2169 82.7861 42.802 82.1952 42.8116C81.0037 42.8927 79.5925 42.9332 78 42.9332C76.4075 42.9332 74.9973 42.8927 73.8048 42.8116C73.2224 42.7977 72.7093 43.2169 72.6688 43.8047C72.6293 44.3924 73.0741 44.9001 73.6619 44.9407Z" fill="#161616"/>
</svg>
