<svg width="167" height="120" viewBox="0 0 167 120" fill="none" xmlns="http://www.w3.org/2000/svg">
<rect width="166.667" height="120" rx="16" fill="#F4F4F7"/>
<path d="M71.1224 70.113L70.4934 75.146L58.2904 78.735C55.4464 79.571 53.4934 82.181 53.4934 85.146V90.146H101.493V85.146C101.493 82.182 99.5404 79.572 96.6964 78.735L84.4934 75.146L83.8644 70.113H71.1224Z" fill="#ECB8AD"/>
<path d="M96.6964 78.7351L84.4934 75.1461L83.9774 71.0181C82.1574 72.3501 79.9214 73.1461 77.4934 73.1461C75.0654 73.1461 72.8294 72.3501 71.0094 71.0181L70.4934 75.1461L58.2904 78.7351C55.4464 79.5711 53.4934 82.1811 53.4934 85.1461V90.1461H101.493V85.1461C101.493 82.1821 99.5404 79.5721 96.6964 78.7351Z" fill="#FDE1D5"/>
<path d="M96.6964 78.7351L86.6724 75.7871L86.1764 76.7791C84.5324 80.0681 81.1704 82.1461 77.4934 82.1461C73.8164 82.1461 70.4544 80.0681 68.8104 76.7791L68.3144 75.7871L58.2904 78.7351C55.4464 79.5711 53.4934 82.1811 53.4934 85.1461V90.1461H101.493V85.1461C101.493 82.1821 99.5404 79.5721 96.6964 78.7351Z" fill="#89C683"/>
<path d="M101.493 85.1461C101.493 82.1821 99.5404 79.5721 96.6964 78.7351L86.6724 75.7871L86.1764 76.7791C84.5324 80.0681 81.1704 82.1461 77.4934 82.1461C73.8164 82.1461 70.4544 80.0681 68.8104 76.7791L68.3144 75.7871L58.2904 78.7351C58.2344 78.7511 58.1844 78.7791 58.1294 78.7971C57.1094 79.9811 56.4934 81.5021 56.4934 83.1461C56.4934 85.9071 58.7324 88.1461 61.4934 88.1461H101.493V85.1461Z" fill="#A7D8A1"/>
<path d="M63.4934 54.91V52.145C63.4934 49.936 61.7024 48.145 59.4934 48.145L62.0034 42.497C62.9094 40.459 64.9304 39.145 67.1604 39.145C68.0364 39.145 68.9004 39.349 69.6844 39.741L72.4924 41.145L71.3204 39.973C69.5094 38.162 67.0534 37.145 64.4924 37.145L67.9464 34.382C68.9474 33.581 70.1904 33.145 71.4724 33.145C73.3594 33.145 75.1214 34.088 76.1684 35.658L78.4934 39.145C78.4934 35.944 77.2214 32.873 74.9574 30.609L74.4934 30.146H78.6644C80.4754 30.146 82.2124 30.865 83.4924 32.146C84.7734 33.427 85.4934 35.164 85.4934 36.976V38.147L85.9974 37.811C87.5564 36.771 88.4934 35.021 88.4934 33.147L89.1514 34.464C90.0334 36.229 90.4934 38.174 90.4934 40.147C91.7744 40.147 93.0024 39.638 93.9074 38.733L94.4934 38.147C94.4934 40.743 93.6514 43.27 92.0934 45.347L91.4934 46.147L94.4934 44.147C94.4934 46.784 93.9404 49.392 92.8684 51.802L91.4874 54.908L63.4934 54.91Z" fill="#672A0D"/>
<path d="M94.4934 38.146L93.9074 38.732C93.0014 39.638 91.7734 40.146 90.4934 40.146C90.4934 38.173 90.0344 36.227 89.1514 34.463L88.4934 33.146C88.4934 35.02 87.5564 36.77 85.9974 37.81L85.4934 38.146V36.975C85.4934 35.163 84.7734 33.426 83.4924 32.145C82.2114 30.865 80.4744 30.145 78.6644 30.145H74.4934L74.9574 30.609C77.2214 32.873 78.4934 35.943 78.4934 39.145L76.1684 35.658C75.1214 34.088 73.3594 33.145 71.4724 33.145C70.1914 33.145 68.9474 33.581 67.9464 34.382L64.4934 37.146C67.0544 37.146 69.5104 38.163 71.3214 39.974L72.4934 41.146L69.6854 39.742C69.2034 39.501 68.6894 39.34 68.1624 39.245C66.3434 39.573 64.7714 40.77 64.0034 42.498L61.4934 48.146C63.7024 48.146 65.4934 49.937 65.4934 52.146V54.91L91.4884 54.907L92.8694 51.801C93.9404 49.391 94.4944 46.783 94.4944 44.146L91.4944 46.146L92.0944 45.346C93.6514 43.269 94.4934 40.742 94.4934 38.146Z" fill="#893B1B"/>
<path d="M66.4934 54.146H65.4934C63.8364 54.146 62.4934 55.489 62.4934 57.146V59.146C62.4934 60.803 63.8364 62.146 65.4934 62.146H66.5384" fill="#ECB8AD"/>
<path d="M88.4934 54.146H89.4934C91.1504 54.146 92.4934 55.489 92.4934 57.146V59.146C92.4934 60.803 91.1504 62.146 89.4934 62.146H88.4484" fill="#ECB8AD"/>
<path d="M61.4934 85.146H63.4934V90.146H61.4934V85.146Z" fill="#6BB566"/>
<path d="M91.4934 85.146H93.4934V90.146H91.4934V85.146Z" fill="#6BB566"/>
<path d="M89.4934 74.146H111.493V78.146H89.4934V74.146Z" fill="#B4B4B4"/>
<path d="M110.493 78.146C112.285 78.743 113.493 80.42 113.493 82.308V88.146C113.493 89.251 112.598 90.146 111.493 90.146H89.4934C88.3884 90.146 87.4934 89.251 87.4934 88.146V82.308C87.4934 80.42 88.7014 78.743 90.4934 78.146" fill="#3C82C2"/>
<path d="M91.4934 74.146V72.573C91.4934 71.233 92.5804 70.146 93.9204 70.146C94.2974 70.146 94.6684 70.058 95.0054 69.89C97.1424 68.821 98.4934 66.637 98.4934 64.247V64.146L100.543 64.439C103.383 64.845 105.493 67.277 105.493 70.146C107.702 70.146 109.493 71.937 109.493 74.146" fill="#FFD992"/>
<path d="M59.4934 48.146C59.9654 48.146 60.4104 48.242 60.8314 48.392L63.1344 46.666C64.2324 45.842 65.9504 46.088 66.7744 47.186L68.2534 49.4L69.9374 48.32L68.8074 46.565L68.3734 45.987C67.5094 44.835 66.1334 44.146 64.6934 44.146C63.7044 44.146 62.7234 44.473 61.9334 45.067L60.3274 46.271L59.4934 48.146Z" fill="#672A0D"/>
<path d="M88.4934 53.122V61.146C88.4934 67.221 83.5684 72.146 77.4934 72.146C71.4184 72.146 66.4934 67.221 66.4934 61.146V51.146C66.4934 47.832 69.1794 45.146 72.4934 45.146C74.4884 45.146 76.4784 44.949 78.4354 44.558L79.8114 44.283C80.2654 44.192 80.7274 44.146 81.1904 44.146C84.3294 44.146 87.0884 46.227 87.9514 49.246C88.3104 50.506 88.4934 51.811 88.4934 53.122Z" fill="#ECB8AD"/>
<path d="M88.4934 61.146V53.122C88.4934 51.811 88.3104 50.506 87.9504 49.245C87.5034 47.682 86.5424 46.379 85.2894 45.477C84.6214 45.267 83.9174 45.145 83.1894 45.145C82.7264 45.145 82.2644 45.191 81.8104 45.282L80.4344 45.557C78.4784 45.948 76.4874 46.145 74.4924 46.145C71.1784 46.145 68.4924 48.831 68.4924 52.145V62.145C68.4924 66.05 70.5334 69.471 73.6004 71.423C74.8124 71.882 76.1204 72.145 77.4924 72.145C83.5684 72.146 88.4934 67.221 88.4934 61.146Z" fill="#FDE1D5"/>
<path d="M110.493 78.146H90.4934C90.3024 78.21 90.1224 78.291 89.9454 78.378C89.6564 78.966 89.4934 79.622 89.4934 80.308V86.146C89.4934 87.251 90.3884 88.146 91.4934 88.146H113.493V82.308C113.493 80.42 112.284 78.743 110.493 78.146Z" fill="#56A0D9"/>
<path d="M93.4934 76.146H111.493V74.146H91.4934C91.4934 75.25 92.3884 76.146 93.4934 76.146Z" fill="#C8C8C8"/>
<path d="M94.4934 73.573V74.146H109.493C109.493 71.937 107.702 70.146 105.493 70.146C105.493 68.149 104.458 66.382 102.879 65.344L101.493 65.146V65.247C101.493 67.637 100.143 69.821 98.0054 70.89C97.6684 71.058 97.2964 71.146 96.9204 71.146C95.5794 71.146 94.4934 72.233 94.4934 73.573Z" fill="#FFE1B2"/>
</svg>
