<svg width="167" height="120" viewBox="0 0 167 120" fill="none" xmlns="http://www.w3.org/2000/svg">
<rect width="166.667" height="120" rx="16" fill="#F4F4F7"/>
<path d="M91.8667 88.8H62L57.7333 55.7334H96.1333L91.8667 88.8Z" fill="#4398D1"/>
<path d="M99.3333 51.4666H54.5333V55.7332H99.3333V51.4666Z" fill="#4398D1"/>
<path d="M57.7333 55.7334L58.2837 60H95.583L96.1333 55.7334H57.7333Z" fill="#398CC4"/>
<path d="M74.7999 51.4667H59.8667V41.8667L64.1333 36.5334H70.5333L74.7999 41.8667V51.4667Z" fill="#726891"/>
<path d="M70.5333 29.0667H64.1333V36.5333H70.5333V29.0667Z" fill="#E8594A"/>
<path d="M74.8001 41.8667H59.8667V51.4667H74.8001V41.8667Z" fill="#7A709C"/>
<path d="M94.1117 42.3431L96.0203 41.3904L91.6664 32.668L89.7578 33.6207L94.1117 42.3431Z" fill="#E66712"/>
<path d="M98.2666 29.0667H93.9999V33.3333H98.2666V29.0667Z" fill="#F77219"/>
<path d="M88.6667 37.6H79.0667C79.0667 32.8875 82.8875 29.0667 87.6001 29.0667H94.0001V33.3333L88.6667 37.6Z" fill="#F77219"/>
<path d="M88.6667 37.6001H82.2667V41.8667H88.6667V37.6001Z" fill="#D4D4D4"/>
<path d="M82.2667 41.8667H88.6667L94 47.2001V51.4667H79.0667V45.0667L82.2667 41.8667Z" fill="#EBEBEB"/>
<path d="M106.8 73.8667H105.13C104.124 73.8667 103.132 74.1013 102.231 74.5504C100.407 75.4636 98.2592 75.4636 96.4352 74.5504C95.5349 74.1014 94.5429 73.8667 93.5371 73.8667H91.8667C88.9216 73.8667 86.5333 76.2549 86.5333 79.2001V85.6001C86.5333 88.5452 88.9216 90.9334 91.8667 90.9334H93.5371C94.5429 90.9334 95.5349 90.6988 96.4352 90.2497C98.2592 89.3366 100.407 89.3366 102.231 90.2497C103.132 90.6988 104.124 90.9334 105.13 90.9334H106.8C109.745 90.9334 112.133 88.5452 112.133 85.6001V79.2001C112.133 76.2549 109.745 73.8667 106.8 73.8667Z" fill="#F5A338"/>
<path d="M106.8 84.5334H105.13C104.124 84.5334 103.132 84.2988 102.231 83.8497C100.407 82.9366 98.2592 82.9366 96.4352 83.8497C95.5349 84.2987 94.5429 84.5334 93.5371 84.5334H91.8667C88.9216 84.5334 86.5333 82.1452 86.5333 79.2001C86.5333 76.2549 88.9216 73.8667 91.8667 73.8667H93.5371C94.5429 73.8667 95.5349 74.1013 96.4352 74.5504C98.2592 75.4636 100.407 75.4636 102.231 74.5504C103.132 74.1014 104.124 73.8667 105.13 73.8667H106.8C109.745 73.8667 112.133 76.2549 112.133 79.2001C112.133 82.1452 109.745 84.5334 106.8 84.5334Z" fill="#F9B44D"/>
<path d="M107.867 77.0667H105.733V79.2H107.867V77.0667Z" fill="#F5A338"/>
<path d="M97.2 77.0667H95.0667V79.2H97.2V77.0667Z" fill="#F5A338"/>
<path d="M92.9333 78.1335H90.7999V80.2669H92.9333V78.1335Z" fill="#F5A338"/>
<path d="M103.6 78.1335H101.467V80.2669H103.6V78.1335Z" fill="#F5A338"/>
<path d="M82.2667 59.9999V51.4666H65.2V75.9999C65.2 77.7674 66.6325 79.1999 68.4 79.1999H79.0666C80.8341 79.1999 82.2666 77.7674 82.2666 75.9999V65.3333L86.5972 67.4987C87.7396 68.0704 89.1285 67.6074 89.7001 66.4662C89.7001 66.4651 89.7012 66.4651 89.7012 66.4641L89.7278 66.4107C90.3252 65.2384 89.858 63.8038 88.6867 63.2074C88.6825 63.2053 88.6771 63.2021 88.6718 63.1999L82.2667 59.9999Z" fill="#97D3E6"/>
<path d="M88.6719 63.1999L82.2667 59.9999V51.4666H81.4582C77.5862 64.1972 70.7916 71.9774 65.2448 76.4703C65.4742 78.0372 66.8171 79.1988 68.4001 79.1999H79.0667C80.8342 79.1999 82.2667 77.7674 82.2667 75.9999V65.3333L86.5973 67.4987C87.7397 68.0704 89.1286 67.6074 89.7002 66.4662C89.7002 66.4651 89.7013 66.4651 89.7013 66.4641L89.7279 66.4107C90.3253 65.2384 89.8581 63.8038 88.6868 63.2074C88.6816 63.2053 88.6773 63.2021 88.6719 63.1999Z" fill="#8AC9DE"/>
<path d="M70.5333 68.5334H68.4V79.2001H70.5333V68.5334Z" fill="#7DBDD1"/>
<path d="M74.8001 68.5334H72.6667V79.2001H74.8001V68.5334Z" fill="#7DBDD1"/>
<path d="M79.0667 68.5334H76.9333V79.2001H79.0667V68.5334Z" fill="#7DBDD1"/>
<path d="M107.867 77.0667H105.733V79.2H107.867V77.0667Z" fill="black"/>
<path d="M97.2001 77.0667H95.0667V79.2H97.2001V77.0667Z" fill="black"/>
<path d="M92.9333 78.1333H90.7999V80.2667H92.9333V78.1333Z" fill="black"/>
<path d="M103.6 78.1333H101.467V80.2667H103.6V78.1333Z" fill="black"/>
</svg>
