<svg width="34" height="34" viewBox="0 0 34 34" fill="none" xmlns="http://www.w3.org/2000/svg">
<circle cx="22" cy="22" r="12" fill="#ECECFC"/>
<path d="M16 21C18.7614 21 21 18.7614 21 16C21 13.2386 18.7614 11 16 11C13.2386 11 11 13.2386 11 16C11 18.7614 13.2386 21 16 21Z" stroke="#4540E1" stroke-width="2" stroke-linecap="round" stroke-linejoin="round"/>
<path d="M16.2563 25.7638C16.0888 25.7638 15.92 25.7638 15.7563 25.7638L11.75 28C10.1904 27.4754 8.74387 26.6611 7.48628 25.6L7.47128 21.1C7.38253 20.96 7.29878 20.8187 7.22128 20.6737L3.23753 18.405C2.92375 16.8179 2.92375 15.1846 3.23753 13.5975L7.21753 11.335C7.29878 11.1913 7.38253 11.0487 7.46753 10.9087L7.48753 6.40875C8.74399 5.34455 10.1902 4.52731 11.75 4L15.75 6.23625C15.9175 6.23625 16.0863 6.23625 16.25 6.23625L20.25 4C21.8096 4.52461 23.2562 5.33886 24.5138 6.4L24.5288 10.9C24.6175 11.04 24.7013 11.1813 24.7788 11.3263L28.76 13.5938C29.0738 15.1809 29.0738 16.8141 28.76 18.4013L24.78 20.6637C24.6988 20.8075 24.615 20.95 24.53 21.09L24.51 25.59C23.2544 26.6544 21.8091 27.472 20.25 28L16.2563 25.7638Z" stroke="#4540E1" stroke-width="2" stroke-linecap="round" stroke-linejoin="round"/>
</svg>
