<?xml version="1.0" encoding="UTF-8"?>
<svg version="1.1" xmlns="http://www.w3.org/2000/svg" width="800" height="928">
<path d="M0 0 C11.94906506 6.88783687 21.80287131 16.80219239 31.76074219 26.20996094 C34.69760203 28.96984637 37.67032848 31.6902798 40.640625 34.4140625 C44.54773666 38.00316701 48.36918142 41.65132334 52.07421875 45.44921875 C54.37415673 47.69180167 56.85099001 49.70575641 59.35546875 51.71484375 C59.77957031 52.13121094 60.20367187 52.54757813 60.640625 52.9765625 C60.640625 53.6365625 60.640625 54.2965625 60.640625 54.9765625 C61.17171875 55.17894531 61.7028125 55.38132813 62.25 55.58984375 C65.68281433 57.58110043 68.1495614 60.32125723 70.890625 63.1640625 C76.07160888 68.46123246 76.07160888 68.46123246 81.578125 73.4140625 C86.15099351 77.28789379 90.2847016 81.59584643 94.49658203 85.85205078 C98.13502465 89.51402415 101.84349167 93.00329612 105.78515625 96.33984375 C108.00226084 98.29556338 110.06438412 100.3721214 112.140625 102.4765625 C116.71949062 107.11050039 121.54954281 111.36103142 126.51953125 115.56640625 C130.05719196 118.56921545 133.35705622 121.69299372 136.640625 124.9765625 C140.59890637 129.18369905 140.59890637 129.18369905 145.640625 130.9765625 C149.88812663 111.78254082 148.69621412 88.69938357 145.0625 69.4296875 C144.43992449 65.8095262 144.30742066 62.64181026 144.640625 58.9765625 C147.37447468 55.36136356 150.53209909 55.07280167 154.79882812 54.32958984 C159.669908 53.72447116 164.48834103 53.7288682 169.390625 53.7890625 C171.09895508 53.79981812 171.09895508 53.79981812 172.84179688 53.81079102 C189.44522589 53.9591144 206.04608593 54.43180619 222.640625 54.9765625 C223.79481934 55.01394531 224.94901367 55.05132812 226.13818359 55.08984375 C228.86896527 55.18441628 231.59838718 55.29345512 234.328125 55.4140625 C235.06289063 55.44105225 235.79765625 55.46804199 236.5546875 55.49584961 C240.09032667 55.6783201 241.60797735 55.9547974 244.640625 57.9765625 C244.93993568 60.69845676 244.93993568 60.69845676 244.8331604 64.23695374 C244.81808453 64.88664247 244.80300866 65.53633121 244.78747594 66.20570749 C244.73365631 68.39433189 244.65869659 70.58175523 244.58447266 72.76977539 C244.5427128 74.33535549 244.50263267 75.90098116 244.46411133 77.46664429 C244.37986378 80.84822642 244.28865893 84.22952957 244.19368362 87.61082649 C244.04795763 92.9815581 243.94888082 98.35249904 243.8621521 103.72447205 C243.84738347 104.63250409 243.83261483 105.54053613 243.81739867 106.47608429 C243.7723407 109.27506473 243.72792209 112.07405479 243.68359375 114.87304688 C243.49973076 126.43787194 243.2836528 137.99861938 242.91943359 149.55932617 C242.65413883 157.99049078 242.48112754 166.41820897 242.41042364 174.85331911 C242.36965697 179.30978015 242.2857803 183.75497795 242.08906937 188.20750618 C241.01408164 211.04409205 241.01408164 211.04409205 251.69482219 230.42794961 C256.34680536 235.24887139 261.40529323 239.5768859 266.69103622 243.68421745 C272.04944516 247.84863599 277.1307931 252.32954533 281.91015625 257.1484375 C282.64451904 257.88610352 283.37888184 258.62376953 284.13549805 259.38378906 C284.90031494 260.1569043 285.66513184 260.93001953 286.453125 261.7265625 C287.67286011 262.95197754 287.67286011 262.95197754 288.91723633 264.20214844 C292.3623984 267.66351292 295.8015279 271.13084841 299.24121094 274.59765625 C301.76809008 277.14271438 304.29803815 279.68469381 306.828125 282.2265625 C307.59294189 282.99967773 308.35775879 283.77279297 309.14575195 284.56933594 C313.20458341 288.64642435 317.35463476 292.52717968 321.71331787 296.28079224 C324.93219817 299.11297264 327.95867275 302.13210413 330.9921875 305.16015625 C331.65471527 305.81935562 332.31724304 306.47855499 332.99984741 307.1577301 C334.38759257 308.54045365 335.77402401 309.92449688 337.15917969 311.30981445 C339.26217483 313.41061593 341.37305663 315.50327085 343.484375 317.59570312 C344.84163565 318.95003014 346.19842259 320.30483208 347.5546875 321.66015625 C348.17671051 322.27499374 348.79873352 322.88983124 349.43960571 323.52330017 C362.45324229 336.60429922 362.45324229 336.60429922 362.7578125 343.7109375 C361.88443747 354.58586529 358.94288741 360.46508961 351.00390625 367.98828125 C346.14827162 372.07343501 341.33845265 374.80752596 334.76953125 374.421875 C324.31822616 372.23573045 315.93555297 364.27149047 308.640625 356.9765625 C307.43947405 356.07345399 306.22237477 355.19126339 304.9921875 354.328125 C304.36393066 353.88549316 303.73567383 353.44286133 303.08837891 352.98681641 C302.37174072 352.48674072 302.37174072 352.48674072 301.640625 351.9765625 C301.59489162 382.86469521 301.55955002 413.75281888 301.53849434 444.64097746 C301.53599326 448.29670313 301.53340458 451.95242873 301.53076172 455.6081543 C301.5302371 456.33587102 301.52971248 457.06358774 301.52917196 457.81335648 C301.52049536 469.5599096 301.5047407 481.30644292 301.48631941 493.05298433 C301.46754363 505.12725735 301.45649214 517.20152007 301.45244801 529.27580708 C301.44996222 536.04878681 301.44403911 542.82172546 301.42916489 549.59469032 C301.41548744 555.98286434 301.41142271 562.37097563 301.41440964 568.7591629 C301.41386399 571.09100626 301.40994759 573.42285194 301.40221405 575.75468254 C301.36170058 588.61207099 301.80739359 601.16654965 303.40671718 613.92785048 C305.22387245 629.84364094 304.82819443 645.98220229 304.82592773 661.97631836 C304.82582474 665.60295221 304.83965841 669.22939627 304.85669994 672.85598469 C304.86781335 675.67586658 304.86984742 678.4957017 304.86931801 681.31560326 C304.87105812 683.29922818 304.88186832 685.28283853 304.89286804 687.26643372 C304.88979141 688.46926498 304.88671478 689.67209625 304.88354492 690.91137695 C304.88496994 691.96517044 304.88639496 693.01896393 304.88786316 694.10469055 C304.42566563 699.47349014 302.2555889 703.06035161 298.640625 706.9765625 C295.35686732 709.67654103 293.37918595 710.88424238 289.140625 711.4140625 C283.6847313 710.73207579 280.72970584 709.09039518 276.890625 705.1640625 C273.27533178 700.0423971 272.38738036 695.60598385 272.41015625 689.3984375 C272.41208984 688.15449219 272.41402344 686.91054688 272.41601562 685.62890625 C272.42826172 684.34113281 272.44050781 683.05335938 272.453125 681.7265625 C272.45376953 680.45425781 272.45441406 679.18195312 272.45507812 677.87109375 C272.48057472 672.38082747 272.5710644 667.00706928 273.2734375 661.55859375 C273.80252998 656.94460305 273.06059765 653.31346291 271.703125 648.9140625 C269.18710965 639.83517504 268.84720663 632.97757723 271.640625 623.9765625 C272.300625 622.9865625 272.960625 621.9965625 273.640625 620.9765625 C273.68537811 619.01999065 273.68537811 619.01999065 273.30078125 616.91796875 C271.3864198 602.91409054 271.56244988 588.57596137 271.58203125 574.46875 C271.58248444 573.78605356 271.58293762 573.10335712 271.58340454 572.39997292 C271.59391436 559.95709754 271.74415617 547.51778894 271.92750549 535.07644653 C272.22797483 514.67182272 272.42724783 494.26646339 272.60614014 473.86044312 C272.63630093 470.46356373 272.66743475 467.0666957 272.69898367 463.66982907 C272.86542436 445.68896327 272.99910946 427.70830855 273.07248688 409.72680378 C273.10552511 401.77614993 273.15041109 393.82595517 273.22583008 385.87557983 C273.2906566 379.03011698 273.33111049 372.18504173 273.34071732 365.33926976 C273.34643375 361.79378215 273.36378297 358.24930555 273.41116333 354.70410919 C273.46271507 350.81477337 273.45948987 346.92655774 273.45117188 343.03686523 C273.48656948 341.32433705 273.48656948 341.32433705 273.52268219 339.57721233 C273.56559368 333.90202598 273.56559368 333.90202598 271.11134338 328.98304939 C269.35798693 327.47048572 267.58577859 326.22609733 265.640625 324.9765625 C263.95188621 323.33226421 262.28756985 321.66272032 260.640625 319.9765625 C254.32238381 313.52960844 254.32238381 313.52960844 247.578125 307.5390625 C246.60875 306.6934375 245.639375 305.8478125 244.640625 304.9765625 C244.640625 304.3165625 244.640625 303.6565625 244.640625 302.9765625 C244.06828125 302.73292969 243.4959375 302.48929687 242.90625 302.23828125 C240.23628962 300.75138952 238.50233493 298.99572342 236.390625 296.7890625 C232.91529582 293.2282744 229.34017009 289.9133731 225.5625 286.6796875 C222.94433244 284.35952275 220.51312702 281.87687855 218.0859375 279.359375 C216.66952723 277.86801765 216.66952723 277.86801765 214.640625 276.9765625 C214.640625 276.3165625 214.640625 275.6565625 214.640625 274.9765625 C214.07859375 274.74324219 213.5165625 274.50992187 212.9375 274.26953125 C210.07328358 272.65719174 208.16810479 270.6572063 205.890625 268.2890625 C202.27445931 264.59347883 198.58577496 261.12791002 194.65625 257.7734375 C191.49894901 254.95878933 188.56892381 251.92583968 185.62109375 248.89453125 C183.59127223 246.81339183 183.59127223 246.81339183 180.640625 244.9765625 C180.640625 244.3165625 180.640625 243.6565625 180.640625 242.9765625 C180.06828125 242.73292969 179.4959375 242.48929688 178.90625 242.23828125 C176.23628962 240.75138952 174.50233493 238.99572342 172.390625 236.7890625 C168.90758343 233.22037237 165.32181287 229.9007434 161.5390625 226.65625 C159.04965781 224.4536903 156.7461147 222.09303614 154.41796875 219.72265625 C152.57468926 217.91178607 150.66239701 216.22334896 148.703125 214.5390625 C145.08037766 211.42378172 141.72556809 208.10685871 138.40234375 204.67578125 C136.54753194 202.78567114 136.54753194 202.78567114 133.640625 200.9765625 C133.640625 200.3165625 133.640625 199.6565625 133.640625 198.9765625 C133.06183594 198.71488281 132.48304688 198.45320312 131.88671875 198.18359375 C129.50491869 196.90363511 127.71745854 195.46300196 125.703125 193.6640625 C125.05472656 193.09042969 124.40632813 192.51679688 123.73828125 191.92578125 C120.79360611 189.18948163 117.97932926 186.33109641 115.15405273 183.47241211 C106.52090423 174.73481285 106.52090423 174.73481285 97.3984375 166.515625 C94.94786413 164.37001187 92.69923731 162.04530836 90.41796875 159.72265625 C88.57468926 157.91178607 86.66239701 156.22334896 84.703125 154.5390625 C81.89486153 152.12038471 79.24091907 149.61756567 76.640625 146.9765625 C74.16137173 144.45894554 71.64622316 142.07565528 68.953125 139.7890625 C64.58784312 136.0437023 60.57682167 131.96994865 56.55981445 127.85864258 C53.71443865 124.96740917 50.80865924 122.21827998 47.734375 119.5703125 C42.77299546 115.28311085 38.22921801 110.61571397 33.640625 105.9375 C30.48216275 102.74202452 27.30771904 99.64157116 23.890625 96.72265625 C18.17961077 91.80375187 12.94475477 86.38691216 7.640625 81.0390625 C6.56924613 79.96265596 5.49763318 78.88648236 4.42578125 77.81054688 C1.82802862 75.20189505 -0.76655462 72.59011779 -3.359375 69.9765625 C-7.16805997 71.74750841 -9.4270913 73.93910363 -12.359375 76.9765625 C-14.85918722 79.37391752 -17.3919877 81.7360046 -19.921875 84.1015625 C-20.63077881 84.76534912 -21.33968262 85.42913574 -22.07006836 86.11303711 C-27.10928026 90.82482814 -32.18458679 95.49459119 -37.27734375 100.1484375 C-40.94753886 103.50944868 -44.59278514 106.89711034 -48.234375 110.2890625 C-48.85320557 110.86406494 -49.47203613 111.43906738 -50.10961914 112.03149414 C-53.03516743 114.76071285 -55.89750335 117.51882123 -58.6796875 120.39453125 C-61.359375 122.9765625 -61.359375 122.9765625 -63.359375 122.9765625 C-63.689375 123.9665625 -64.019375 124.9565625 -64.359375 125.9765625 C-65.890625 127.484375 -65.890625 127.484375 -67.859375 129.1015625 C-71.01043735 131.76871171 -73.96526911 134.53221172 -76.859375 137.4765625 C-79.52691586 140.18039643 -82.21396992 142.76911785 -85.109375 145.2265625 C-88.88669889 148.45995175 -92.36620226 151.9435645 -95.859375 155.4765625 C-99.9112565 159.57458642 -104.00541975 163.50783836 -108.40234375 167.23828125 C-111.72706647 170.19137828 -114.79383742 173.40411759 -117.91796875 176.56640625 C-120.62317896 179.23698977 -123.44699525 181.70912414 -126.33984375 184.171875 C-129.54723325 187.03805285 -132.5016225 190.14939569 -135.4765625 193.25390625 C-137.359375 194.9765625 -137.359375 194.9765625 -139.359375 194.9765625 C-139.74416016 195.86794922 -139.74416016 195.86794922 -140.13671875 196.77734375 C-141.47647065 199.18718503 -142.7966993 200.42528238 -144.921875 202.1640625 C-149.03733601 205.62496207 -152.75794006 209.3733229 -156.4765625 213.25390625 C-158.359375 214.9765625 -158.359375 214.9765625 -160.359375 214.9765625 C-160.689375 215.9665625 -161.019375 216.9565625 -161.359375 217.9765625 C-162.92578125 219.51953125 -162.92578125 219.51953125 -164.921875 221.1640625 C-167.86950142 223.65982462 -170.65511566 226.21875347 -173.359375 228.9765625 C-176.5809605 232.24858378 -179.94529645 235.26972305 -183.42578125 238.26171875 C-185.92093888 240.47459592 -188.23448746 242.84026148 -190.5703125 245.21875 C-193.10903219 247.71312524 -195.8004937 250.01443185 -198.5 252.33203125 C-200.15954185 253.79981932 -201.70295733 255.31508229 -203.234375 256.9140625 C-205.359375 258.9765625 -205.359375 258.9765625 -207.359375 258.9765625 C-207.689375 259.9665625 -208.019375 260.9565625 -208.359375 261.9765625 C-209.99609375 263.58984375 -209.99609375 263.58984375 -212.046875 265.2890625 C-214.74311842 267.56416915 -217.29161242 269.8687642 -219.734375 272.4140625 C-222.359375 274.9765625 -222.359375 274.9765625 -224.359375 274.9765625 C-224.689375 275.9665625 -225.019375 276.9565625 -225.359375 277.9765625 C-226.92578125 279.51953125 -226.92578125 279.51953125 -228.921875 281.1640625 C-232.51526291 284.20659237 -235.84000478 287.40292905 -239.109375 290.7890625 C-241.04738823 292.67324203 -243.02512107 294.44522683 -245.06640625 296.21484375 C-250.2834395 300.74545706 -255.26528988 305.51458432 -260.26757812 310.27929688 C-263.85661819 313.68063241 -267.45351286 316.93628519 -271.359375 319.9765625 C-273.04754433 321.62144544 -274.71290815 323.28993792 -276.359375 324.9765625 C-276.87000488 325.37554749 -277.38063477 325.77453247 -277.90673828 326.18560791 C-280.4271385 328.27665908 -282.11633499 329.91378036 -282.8605957 333.16833496 C-282.9925456 335.8714266 -282.92791727 338.50762282 -282.796875 341.2109375 C-282.77165771 342.24445343 -282.74644043 343.27796936 -282.72045898 344.34280396 C-282.62895755 347.80555322 -282.49398486 351.2652417 -282.359375 354.7265625 C-282.28618662 357.18237041 -282.21594565 359.63826767 -282.1484375 362.09423828 C-281.99632967 367.45897433 -281.82638391 372.82274531 -281.64453125 378.18652344 C-281.33011909 387.53450448 -281.09278203 396.88407774 -280.859375 406.234375 C-280.77642098 409.5224706 -280.69298464 412.81055383 -280.609375 416.09863281 C-280.57842995 417.31594715 -280.57842995 417.31594715 -280.54685974 418.5578537 C-280.22004068 431.36505078 -279.86935106 444.17147586 -279.47998047 456.97692871 C-279.40041662 459.59380737 -279.32448143 462.21070752 -279.25048828 464.82775879 C-279.14925968 468.35944735 -279.03724948 471.89062392 -278.921875 475.421875 C-278.89480469 476.42660858 -278.86773437 477.43134216 -278.83984375 478.46652222 C-278.62723681 484.50697424 -277.91611275 490.29309331 -276.80303955 496.23516846 C-276.08187862 500.69120688 -276.06922152 505.09768038 -276.109375 509.6015625 C-276.09777344 510.86806641 -276.09777344 510.86806641 -276.0859375 512.16015625 C-276.10184959 517.59413391 -276.60747148 522.79997581 -277.3659668 528.17895508 C-279.10729377 542.49120027 -278.59379407 557.0074087 -278.52923131 571.40042043 C-278.51279951 575.61218479 -278.50887098 579.8239607 -278.50376892 584.03575134 C-278.49246404 591.99305273 -278.47178845 599.95029615 -278.44687122 607.90756553 C-278.40228828 622.17161626 -278.36927126 636.43568776 -278.34662718 650.69978994 C-278.33826415 655.69498908 -278.32428777 660.69013088 -278.30565464 665.6853019 C-278.2949649 668.79301488 -278.28841202 671.90072739 -278.28285408 675.00845337 C-278.27940358 676.44148231 -278.27421177 677.87450835 -278.26708603 679.30752373 C-278.17120626 699.03228638 -278.17120626 699.03228638 -281.421875 704.3515625 C-286.42895059 708.82597047 -290.8898179 710.29636513 -297.609375 710.0390625 C-301.46039504 709.50074787 -302.14524779 709.20635755 -304.921875 706.2265625 C-310.2660133 694.14416286 -308.60777868 677.70165274 -308.90429688 664.63647461 C-308.92509528 663.74971413 -308.94589369 662.86295364 -308.96732235 661.94932163 C-309.53762146 637.09895891 -309.56613733 612.24407961 -309.62976646 587.38834882 C-309.64642366 581.29771146 -309.66771633 575.20709211 -309.68910962 569.11646985 C-309.73142259 557.05071856 -309.77063665 544.9849597 -309.80712891 532.91918945 C-309.80929171 532.20446769 -309.81145451 531.48974593 -309.81368285 530.75336593 C-309.83120202 524.95559024 -309.84856249 519.15781408 -309.86588573 513.3600378 C-309.88106383 508.28047096 -309.89629545 503.20090429 -309.91162109 498.12133789 C-309.91377996 497.40541249 -309.91593883 496.6894871 -309.91816312 495.95186699 C-309.95459039 483.90781498 -309.99454861 471.86377704 -310.03692389 459.81974453 C-310.06038081 453.11061919 -310.08189951 446.40149961 -310.09901428 439.6923542 C-310.16530934 404.93614152 -310.16530934 404.93614152 -310.81445312 370.18725586 C-310.83362258 369.46141584 -310.85279203 368.73557581 -310.87254238 367.98774064 C-310.91694037 359.89050228 -310.91694037 359.89050228 -312.359375 351.9765625 C-313.205 352.77320313 -314.050625 353.56984375 -314.921875 354.390625 C-335.71787609 373.87228934 -335.71787609 373.87228934 -347.359375 374.5390625 C-353.73925541 374.23195646 -358.62982661 371.71826924 -363.11328125 367.21484375 C-368.75226285 360.24738027 -372.11299689 352.31544992 -371.67578125 343.2890625 C-370.73041912 336.37974913 -366.96625555 331.8615487 -362.359375 326.9765625 C-361.245625 325.77 -361.245625 325.77 -360.109375 324.5390625 C-358.359375 322.9765625 -358.359375 322.9765625 -356.359375 322.9765625 C-355.96685547 322.07744141 -355.96685547 322.07744141 -355.56640625 321.16015625 C-354.27716893 318.82784667 -353.1078594 317.70285505 -351.046875 316.0390625 C-347.10146249 312.71169275 -343.47950908 309.14772839 -339.859375 305.4765625 C-335.76532063 301.33454921 -331.62585629 297.3537636 -327.18359375 293.58203125 C-324.44011574 291.16753562 -321.91854698 288.54445451 -319.35546875 285.94140625 C-317.43830323 284.05425506 -315.46362178 282.28970875 -313.421875 280.5390625 C-309.69320627 277.33576392 -306.24998203 273.90995744 -302.828125 270.3828125 C-300.80722979 268.4130792 -298.75649049 266.56057571 -296.625 264.71484375 C-291.3676711 260.15514081 -286.37162319 255.32783054 -281.36328125 250.49804688 C-280.64527344 249.81419922 -279.92726563 249.13035156 -279.1875 248.42578125 C-278.5471582 247.81049561 -277.90681641 247.19520996 -277.24707031 246.5612793 C-275.359375 244.9765625 -275.359375 244.9765625 -273.18261719 243.94848633 C-271.00317822 243.05531658 -271.00317822 243.05531658 -270.359375 239.9765625 C-268.72265625 238.36328125 -268.72265625 238.36328125 -266.671875 236.6640625 C-263.97563158 234.38895585 -261.42713758 232.0843608 -258.984375 229.5390625 C-256.359375 226.9765625 -256.359375 226.9765625 -254.359375 226.9765625 C-254.029375 225.9865625 -253.699375 224.9965625 -253.359375 223.9765625 C-251.828125 222.46875 -251.828125 222.46875 -249.859375 220.8515625 C-246.70831265 218.18441329 -243.75348089 215.42091328 -240.859375 212.4765625 C-237.46393491 209.0344497 -233.95641953 205.82218852 -230.28125 202.68359375 C-227.64701991 200.34384061 -225.22370583 197.82137768 -222.8046875 195.26171875 C-221.359375 193.9765625 -221.359375 193.9765625 -219.359375 193.9765625 C-219.359375 193.3165625 -219.359375 192.6565625 -219.359375 191.9765625 C-217.8203125 190.4609375 -217.8203125 190.4609375 -215.734375 188.7265625 C-213.01889741 186.42996177 -210.44675236 184.10505475 -207.984375 181.5390625 C-205.359375 178.9765625 -205.359375 178.9765625 -203.359375 178.9765625 C-203.029375 177.9865625 -202.699375 176.9965625 -202.359375 175.9765625 C-200.828125 174.46875 -200.828125 174.46875 -198.859375 172.8515625 C-195.70831265 170.18441329 -192.75348089 167.42091328 -189.859375 164.4765625 C-186.49823018 161.0693746 -183.02236297 157.90198076 -179.390625 154.7890625 C-176.32100178 152.05001409 -173.47408892 149.0997261 -170.5859375 146.171875 C-167.92130866 143.54464446 -165.12557535 141.1126476 -162.28125 138.68359375 C-159.64701991 136.34384061 -157.22370583 133.82137768 -154.8046875 131.26171875 C-153.359375 129.9765625 -153.359375 129.9765625 -151.359375 129.9765625 C-151.359375 129.3165625 -151.359375 128.6565625 -151.359375 127.9765625 C-149.890625 126.49609375 -149.890625 126.49609375 -147.859375 124.7890625 C-147.13105469 124.16902344 -146.40273437 123.54898438 -145.65234375 122.91015625 C-144.89566406 122.27207031 -144.13898438 121.63398438 -143.359375 120.9765625 C-138.2908207 116.61223147 -133.41594623 112.1779588 -128.79296875 107.3359375 C-127.35019367 105.84796705 -125.85784293 104.40843186 -124.359375 102.9765625 C-123.699375 102.9765625 -123.039375 102.9765625 -122.359375 102.9765625 C-122.029375 101.9865625 -121.699375 100.9965625 -121.359375 99.9765625 C-119.8215332 98.44238281 -119.8215332 98.44238281 -117.84765625 96.8046875 C-113.27177986 92.92187827 -108.90538944 88.85041729 -104.546875 84.7265625 C-103.79728516 84.02015625 -103.04769531 83.31375 -102.27539062 82.5859375 C-98.43525441 78.99862716 -98.43525441 78.99862716 -94.7512207 75.25488281 C-93.359375 73.9765625 -93.359375 73.9765625 -91.359375 73.9765625 C-91.359375 73.3165625 -91.359375 72.6565625 -91.359375 71.9765625 C-89.890625 70.49609375 -89.890625 70.49609375 -87.859375 68.7890625 C-87.13105469 68.16902344 -86.40273438 67.54898438 -85.65234375 66.91015625 C-84.89566406 66.27207031 -84.13898438 65.63398437 -83.359375 64.9765625 C-78.86971046 61.11069048 -74.50079172 57.21898938 -70.359375 52.9765625 C-62.01369465 44.46976863 -62.01369465 44.46976863 -57.609375 40.7265625 C-53.83205111 37.49317325 -50.35254774 34.0095605 -46.859375 30.4765625 C-42.80679979 26.37783697 -38.71419739 22.44149091 -34.3125 18.71484375 C-31.90389155 16.57118223 -29.67564175 14.28217971 -27.421875 11.9765625 C-10.89698448 -4.72683764 -10.89698448 -4.72683764 0 0 Z M35.640625 84.9765625 C35.310625 85.6365625 34.980625 86.2965625 34.640625 86.9765625 C35.93530177 89.03646728 35.93530177 89.03646728 37.640625 90.9765625 C38.630625 90.9765625 39.620625 90.9765625 40.640625 90.9765625 C40.640625 89.3265625 40.640625 87.6765625 40.640625 85.9765625 C38.990625 85.6465625 37.340625 85.3165625 35.640625 84.9765625 Z M185.640625 87.9765625 C185.640625 88.9665625 185.640625 89.9565625 185.640625 90.9765625 C186.630625 90.6465625 187.620625 90.3165625 188.640625 89.9765625 C187.650625 89.3165625 186.660625 88.6565625 185.640625 87.9765625 Z M-88.359375 90.9765625 C-88.689375 92.6265625 -89.019375 94.2765625 -89.359375 95.9765625 C-88.699375 95.9765625 -88.039375 95.9765625 -87.359375 95.9765625 C-87.359375 94.3265625 -87.359375 92.6765625 -87.359375 90.9765625 C-87.689375 90.9765625 -88.019375 90.9765625 -88.359375 90.9765625 Z M99.640625 110.9765625 C99.310625 112.2965625 98.980625 113.6165625 98.640625 114.9765625 C101.88988622 117.14273665 102.2391492 117.18991919 105.828125 116.6015625 C107.7153125 116.2921875 107.7153125 116.2921875 109.640625 115.9765625 C109.310625 114.3265625 108.980625 112.6765625 108.640625 110.9765625 C105.670625 110.9765625 102.700625 110.9765625 99.640625 110.9765625 Z M-189.359375 180.9765625 C-189.029375 181.6365625 -188.699375 182.2965625 -188.359375 182.9765625 C-187.039375 182.9765625 -185.719375 182.9765625 -184.359375 182.9765625 C-184.359375 182.3165625 -184.359375 181.6565625 -184.359375 180.9765625 C-186.009375 180.9765625 -187.659375 180.9765625 -189.359375 180.9765625 Z M-247.359375 233.9765625 C-247.029375 234.9665625 -246.699375 235.9565625 -246.359375 236.9765625 C-245.369375 236.9765625 -244.379375 236.9765625 -243.359375 236.9765625 C-243.359375 235.9865625 -243.359375 234.9965625 -243.359375 233.9765625 C-244.679375 233.9765625 -245.999375 233.9765625 -247.359375 233.9765625 Z M-231.359375 233.9765625 C-231.689375 235.2965625 -232.019375 236.6165625 -232.359375 237.9765625 C-229.01536031 240.44480096 -229.01536031 240.44480096 -225.046875 240.6640625 C-224.2115625 240.32375 -224.2115625 240.32375 -223.359375 239.9765625 C-223.316654 238.31044345 -223.31873668 236.64273365 -223.359375 234.9765625 C-224.54361826 233.56078773 -224.54361826 233.56078773 -227.921875 233.9140625 C-229.6234375 233.945 -229.6234375 233.945 -231.359375 233.9765625 Z M231.640625 281.9765625 C231.310625 283.2965625 230.980625 284.6165625 230.640625 285.9765625 C231.630625 285.9765625 232.620625 285.9765625 233.640625 285.9765625 C233.310625 284.6565625 232.980625 283.3365625 232.640625 281.9765625 C232.310625 281.9765625 231.980625 281.9765625 231.640625 281.9765625 Z M-292.359375 358.9765625 C-292.689375 359.6365625 -293.019375 360.2965625 -293.359375 360.9765625 C-293.029375 361.6365625 -292.699375 362.2965625 -292.359375 362.9765625 C-291.369375 362.6465625 -290.379375 362.3165625 -289.359375 361.9765625 C-289.689375 360.9865625 -290.019375 359.9965625 -290.359375 358.9765625 C-291.019375 358.9765625 -291.679375 358.9765625 -292.359375 358.9765625 Z M-296.359375 366.9765625 C-296.029375 367.9665625 -295.699375 368.9565625 -295.359375 369.9765625 C-293.379375 369.9765625 -291.399375 369.9765625 -289.359375 369.9765625 C-289.359375 369.3165625 -289.359375 368.6565625 -289.359375 367.9765625 C-291.669375 367.6465625 -293.979375 367.3165625 -296.359375 366.9765625 Z M277.640625 417.9765625 C277.640625 418.9665625 277.640625 419.9565625 277.640625 420.9765625 C278.630625 420.9765625 279.620625 420.9765625 280.640625 420.9765625 C280.310625 419.9865625 279.980625 418.9965625 279.640625 417.9765625 C278.980625 417.9765625 278.320625 417.9765625 277.640625 417.9765625 Z " fill="#4B40E1" transform="translate(379.359375,9.0234375)"/>
<path d="M0 0 C0.95327682 -0.0033284 1.90655365 -0.0066568 2.88871765 -0.01008606 C4.89626591 -0.01511279 6.90382241 -0.01749571 8.91137695 -0.01733398 C11.90395824 -0.01949851 14.89615658 -0.03763974 17.88867188 -0.05664062 C51.34091964 -0.15532592 81.07922456 5.03254352 110.63671875 21.16796875 C111.31943848 21.53760742 112.0021582 21.90724609 112.70556641 22.28808594 C130.31321997 31.926389 145.2934452 44.20912675 159.63671875 58.16796875 C160.50039063 58.99167969 161.3640625 59.81539063 162.25390625 60.6640625 C177.75488147 75.70912668 189.7879505 94.04803553 199.63671875 113.16796875 C200.18585938 114.22733643 200.18585938 114.22733643 200.74609375 115.30810547 C209.17373213 131.77024511 214.08307448 149.07628041 217.63671875 167.16796875 C217.85199219 168.20308594 218.06726563 169.23820313 218.2890625 170.3046875 C226.59579487 215.71886667 215.10972397 264.44743922 192.2409668 303.94213867 C190.1473401 307.37626039 190.1473401 307.37626039 189.9909668 311.24145508 C190.71620321 313.40509988 191.41176145 315.23382565 192.63671875 317.16796875 C193.25675781 317.46316406 193.87679688 317.75835938 194.515625 318.0625 C196.93032762 319.32099142 198.06250421 320.61712404 199.76171875 322.73046875 C201.04908273 324.21338169 202.34109927 325.69226317 203.63671875 327.16796875 C204.34570312 327.99039062 205.0546875 328.8128125 205.78515625 329.66015625 C210.74709829 334.81991658 213.89451082 336.63965588 221.13671875 336.79296875 C222.42191406 336.8084375 223.70710938 336.82390625 225.03125 336.83984375 C230.97289669 337.38057866 234.32034179 340.26688989 238.63671875 344.16796875 C239.38163574 344.8323999 239.38163574 344.8323999 240.14160156 345.51025391 C242.75325087 347.84476489 245.33082684 350.20937891 247.875 352.6171875 C250.38122804 354.93199218 252.95694965 357.05982275 255.63671875 359.16796875 C257.94921875 361.29296875 257.94921875 361.29296875 259.63671875 363.16796875 C259.63671875 363.82796875 259.63671875 364.48796875 259.63671875 365.16796875 C260.42817795 365.47096138 260.42817795 365.47096138 261.23562622 365.78007507 C264.7086788 367.78758942 267.25051333 370.52918096 270.05419922 373.37426758 C270.68888123 374.01026382 271.32356323 374.64626007 271.97747803 375.30152893 C274.07425423 377.40479494 276.16396521 379.51494392 278.25390625 381.625 C279.71304153 383.090408 281.1726947 384.55530049 282.63284302 386.0196991 C286.47839978 389.87856318 290.31835722 393.74294742 294.15673828 397.60894775 C300.29200663 403.787308 306.43392117 409.95904219 312.57919693 416.12744713 C314.7208181 418.27925447 316.85896988 420.43446486 318.99679565 422.59004211 C320.31789524 423.91797453 321.63910722 425.24579513 322.96044922 426.57348633 C323.54974213 427.1695166 324.13903503 427.76554687 324.7461853 428.37963867 C328.22384763 431.86675048 331.82801328 435.04659611 335.63671875 438.16796875 C336.67416068 439.30147012 337.68237045 440.46367209 338.63671875 441.66796875 C340.55916718 443.99092727 342.28460395 445.70787308 344.63671875 447.66796875 C347.54169285 450.0887805 349.74111573 452.58578177 352.13671875 455.48046875 C353.78004117 457.41352192 353.78004117 457.41352192 356.63671875 459.66796875 C358.98883355 461.62806442 360.71427032 463.34501023 362.63671875 465.66796875 C364.54040775 467.96722949 366.24354972 469.67150934 368.57421875 471.60546875 C370.92356809 473.57125085 372.61918969 475.24003384 374.546875 477.546875 C379.75266308 483.56818409 385.4775755 489.07810094 391.13671875 494.66796875 C403.97823579 507.35228856 403.97823579 507.35228856 409.23632812 513.52685547 C411.13050477 515.74663501 413.13983866 517.85319538 415.13671875 519.98046875 C422.09422537 527.68724531 429.25111326 536.70466872 428.9453125 547.515625 C427.78136245 557.519702 423.87866124 565.41366135 417.63671875 573.16796875 C417.17523437 573.791875 416.71375 574.41578125 416.23828125 575.05859375 C409.36293021 583.88129856 398.64752605 590.89920127 387.63671875 593.16796875 C376.89549452 594.36906411 370.00392496 590.96742159 361.69921875 584.41796875 C360.00745984 583.00639073 358.32014582 581.58947288 356.63671875 580.16796875 C354.70000072 578.60449961 352.76249667 577.04200364 350.82421875 575.48046875 C347.20187796 572.553703 343.91298754 569.47537963 340.63671875 566.16796875 C339.84467041 565.37068359 339.05262207 564.57339844 338.23657227 563.75195312 C337.42115967 562.93017578 336.60574707 562.10839844 335.765625 561.26171875 C334.38288505 559.87207989 333.00013678 558.48244921 331.61694336 557.09326172 C330.20448876 555.6732669 328.79462156 554.25069997 327.38476562 552.828125 C322.94793228 548.37550222 318.50381722 544.13988218 313.63671875 540.16796875 C312.59927682 539.03446738 311.59106705 537.87226541 310.63671875 536.66796875 C308.71427032 534.34501023 306.98883355 532.62806442 304.63671875 530.66796875 C301.73174465 528.247157 299.53232177 525.75015573 297.13671875 522.85546875 C295.49339633 520.92241558 295.49339633 520.92241558 292.63671875 518.66796875 C289.73174465 516.247157 287.53232177 513.75015573 285.13671875 510.85546875 C283.49339633 508.92241558 283.49339633 508.92241558 280.63671875 506.66796875 C277.73174465 504.247157 275.53232177 501.75015573 273.13671875 498.85546875 C271.49339633 496.92241558 271.49339633 496.92241558 268.63671875 494.66796875 C266.28460395 492.70787308 264.55916718 490.99092727 262.63671875 488.66796875 C260.73302975 486.36870801 259.02988778 484.66442816 256.69921875 482.73046875 C254.34986941 480.76468665 252.65424781 479.09590366 250.7265625 476.7890625 C245.52077442 470.76775341 239.795862 465.25783656 234.13671875 459.66796875 C221.59360501 447.2783994 221.59360501 447.2783994 216.22460938 440.97851562 C213.36055201 437.71285612 210.23641204 434.70774733 207.13671875 431.66796875 C202.72753854 427.30112268 198.3819096 422.95000578 194.38671875 418.1953125 C192.9220519 416.49852211 191.42467846 414.8638061 189.88671875 413.234375 C189.39268555 412.70803467 188.89865234 412.18169434 188.38964844 411.6394043 C187.41656519 410.60577997 186.43835188 409.57695145 185.45410156 408.55395508 C180.93713991 403.73225209 178.3779339 399.29876312 177.94921875 392.66796875 C177.87960937 391.71535156 177.81 390.76273438 177.73828125 389.78125 C177.63671875 387.16796875 177.63671875 387.16796875 177.82421875 383.85546875 C177.35344281 377.10768035 170.95266392 372.36702623 166.26171875 368.10546875 C165.29105469 367.20731445 165.29105469 367.20731445 164.30078125 366.29101562 C163.0267646 365.11845796 161.74470224 363.95457188 160.45410156 362.80029297 C159.28390183 361.74925114 158.13046914 360.67907713 156.99902344 359.58642578 C154.76909976 357.51985864 153.31985 356.2077628 150.22265625 356.02734375 C146.508456 357.66563147 143.49088958 359.97982614 140.26171875 362.41796875 C97.73172656 393.44178476 48.90832415 406.1527567 -3.36328125 402.16796875 C-4.16910645 402.11125 -4.97493164 402.05453125 -5.80517578 401.99609375 C-47.68621721 398.88265625 -86.54412778 379.95945637 -116.9609375 351.41796875 C-119.19090971 349.32940941 -121.47484593 347.3357146 -123.80078125 345.35546875 C-126.69450399 342.84404678 -129.03316224 340.22122815 -131.36328125 337.16796875 C-132.11867187 336.42546875 -132.8740625 335.68296875 -133.65234375 334.91796875 C-147.06640717 321.31061912 -157.47138699 304.46700097 -165.36328125 287.16796875 C-165.70101562 286.430625 -166.03875 285.69328125 -166.38671875 284.93359375 C-176.01066359 263.65961041 -183.39972844 240.73994638 -183.6015625 217.23828125 C-183.61135635 216.29853958 -183.62115021 215.35879791 -183.63124084 214.39057922 C-183.86247708 186.44811894 -182.1840694 160.8894368 -173.36328125 134.16796875 C-173.01958496 133.10642578 -173.01958496 133.10642578 -172.66894531 132.0234375 C-163.53105147 104.27819233 -146.44106275 80.05085868 -126.36328125 59.16796875 C-125.84362793 58.62108398 -125.32397461 58.07419922 -124.78857422 57.51074219 C-92.85534668 24.01379947 -46.83253929 0.05919591 0 0 Z M101.63671875 24.79296875 C99.37298935 27.48114741 98.5546045 29.80238766 97.63671875 33.16796875 C101.84435099 31.66524295 103.43949455 28.9346388 105.63671875 25.16796875 C105.63671875 24.50796875 105.63671875 23.84796875 105.63671875 23.16796875 C103.46593325 22.95777121 103.46593325 22.95777121 101.63671875 24.79296875 Z M-29.36328125 34.16796875 C-30.08354492 34.37083496 -30.80380859 34.57370117 -31.54589844 34.78271484 C-72.85502186 46.50557419 -108.21274837 76.14899549 -130.31347656 112.44433594 C-131.33583004 114.1228977 -132.37666757 115.7901575 -133.41796875 117.45703125 C-148.73201878 142.90099765 -153.80328643 170.10037232 -153.67578125 199.41796875 C-153.67429077 200.27003906 -153.67280029 201.12210938 -153.67126465 202 C-153.63072277 214.91531035 -153.14252692 227.50862453 -150.36328125 240.16796875 C-150.2240625 240.82974121 -150.08484375 241.49151367 -149.94140625 242.17333984 C-144.820633 265.76801381 -133.51370358 286.57309143 -118.36328125 305.16796875 C-117.08911294 306.83208721 -115.8179339 308.49850198 -114.55078125 310.16796875 C-112.05981069 313.44657267 -109.29861487 316.28075536 -106.36328125 319.16796875 C-105.12191406 320.44414063 -105.12191406 320.44414063 -103.85546875 321.74609375 C-91.42937094 334.43184137 -77.25986294 346.08646633 -61.36328125 354.16796875 C-60.68136719 354.55082031 -59.99945313 354.93367188 -59.296875 355.328125 C-49.17597445 360.80221208 -37.87433616 364.10092356 -26.9453125 367.5859375 C-26.27266357 367.8025 -25.60001465 368.0190625 -24.90698242 368.2421875 C-23.11683799 368.8143777 -21.32223959 369.372581 -19.52734375 369.9296875 C-15.30144085 371.58352851 -11.54641953 373.36086994 -9.0078125 377.23828125 C-8.73324219 377.91632813 -8.45867187 378.594375 -8.17578125 379.29296875 C-6.83140391 382.54648469 -6.48629692 383.08595831 -3.36328125 385.16796875 C-4.03548064 381.35883888 -5.11688826 377.8260815 -6.36328125 374.16796875 C-5.34306885 374.12833008 -4.32285645 374.08869141 -3.27172852 374.04785156 C16.91156177 373.23866937 36.80834534 372.30968606 56.63671875 368.16796875 C57.35182617 368.02133789 58.06693359 367.87470703 58.80371094 367.72363281 C100.02715876 358.92631743 136.04463386 330.5429411 160.63671875 297.16796875 C161.26835938 296.33136719 161.9 295.49476563 162.55078125 294.6328125 C174.27013099 278.60566526 180.99778473 261.0435584 186.63671875 242.16796875 C187.17039062 240.43353516 187.17039062 240.43353516 187.71484375 238.6640625 C188.68413265 234.98815757 189.28677572 231.37523361 189.69921875 227.60546875 C189.78300781 226.86022949 189.86679687 226.11499023 189.953125 225.34716797 C190.8728617 216.2521935 191.03831519 207.11323031 191.20727539 197.97827148 C191.36786428 191.02811237 191.90996872 184.40472134 193.21679688 177.57177734 C193.72276087 175.08212948 193.72276087 175.08212948 193.63671875 172.16796875 C193.00507812 171.94367188 192.3734375 171.719375 191.72265625 171.48828125 C189.63671875 170.16796875 189.63671875 170.16796875 188.80078125 167.91015625 C188.62289063 166.96398437 188.445 166.0178125 188.26171875 165.04296875 C177.88175342 118.47189435 145.42595283 78.92339897 105.94921875 53.79296875 C78.23689734 37.37604923 48.39712151 28.50934733 16.13671875 28.66796875 C15.21595551 28.66906647 14.29519226 28.67016418 13.3465271 28.67129517 C-1.43976961 28.72179755 -15.12611241 29.898015 -29.36328125 34.16796875 Z M165.63671875 85.16796875 C166.29671875 86.81796875 166.95671875 88.46796875 167.63671875 90.16796875 C168.29671875 90.16796875 168.95671875 90.16796875 169.63671875 90.16796875 C168.97671875 88.51796875 168.31671875 86.86796875 167.63671875 85.16796875 C166.97671875 85.16796875 166.31671875 85.16796875 165.63671875 85.16796875 Z M-151.36328125 105.16796875 C-153.13737933 107.08819578 -153.13737933 107.08819578 -154.36328125 109.16796875 C-151.3500393 110.67458972 -148.68041748 110.34567248 -145.36328125 110.16796875 C-144.70328125 109.50796875 -144.04328125 108.84796875 -143.36328125 108.16796875 C-146.42445693 105.54410388 -147.09501252 105.16796875 -151.36328125 105.16796875 Z M184.63671875 118.16796875 C184.96671875 119.15796875 185.29671875 120.14796875 185.63671875 121.16796875 C186.29671875 121.16796875 186.95671875 121.16796875 187.63671875 121.16796875 C187.30671875 120.17796875 186.97671875 119.18796875 186.63671875 118.16796875 C185.97671875 118.16796875 185.31671875 118.16796875 184.63671875 118.16796875 Z M-169.36328125 179.16796875 C-169.03328125 180.48796875 -168.70328125 181.80796875 -168.36328125 183.16796875 C-168.03328125 182.17796875 -167.70328125 181.18796875 -167.36328125 180.16796875 C-168.02328125 179.83796875 -168.68328125 179.50796875 -169.36328125 179.16796875 Z M-172.36328125 201.16796875 C-172.36328125 201.82796875 -172.36328125 202.48796875 -172.36328125 203.16796875 C-170.71328125 202.83796875 -169.06328125 202.50796875 -167.36328125 202.16796875 C-167.36328125 201.83796875 -167.36328125 201.50796875 -167.36328125 201.16796875 C-169.01328125 201.16796875 -170.66328125 201.16796875 -172.36328125 201.16796875 Z M200.63671875 223.16796875 C199.64671875 224.65296875 199.64671875 224.65296875 198.63671875 226.16796875 C201.24729308 230.08383024 203.12726374 230.17436002 207.63671875 231.16796875 C210.4291592 231.33725418 210.4291592 231.33725418 212.63671875 231.16796875 C212.31978122 228.23629656 212.00446041 226.57814214 210.01171875 224.35546875 C206.71991307 222.70956591 204.26190447 222.76517034 200.63671875 223.16796875 Z M-143.36328125 301.16796875 C-143.36328125 301.82796875 -143.36328125 302.48796875 -143.36328125 303.16796875 C-139.89828125 302.67296875 -139.89828125 302.67296875 -136.36328125 302.16796875 C-136.36328125 301.50796875 -136.36328125 300.84796875 -136.36328125 300.16796875 C-139.99213449 300.01647577 -139.99213449 300.01647577 -143.36328125 301.16796875 Z M175.44921875 328.79296875 C174.88396484 329.31503906 174.31871094 329.83710937 173.73632812 330.375 C169.94854652 333.88943654 166.27098286 337.49510092 162.63671875 341.16796875 C164.9097846 346.34302051 168.93469247 349.79504763 172.88671875 353.73046875 C173.63824219 354.49810547 174.38976562 355.26574219 175.1640625 356.05664062 C179.08174557 359.97774227 182.45704974 363.11424648 187.63671875 365.16796875 C198.04647408 357.4732985 198.04647408 357.4732985 205.63671875 347.16796875 C204.97671875 346.17796875 204.31671875 345.18796875 203.63671875 344.16796875 C202.97671875 344.16796875 202.31671875 344.16796875 201.63671875 344.16796875 C201.24419922 343.29978516 201.24419922 343.29978516 200.84375 342.4140625 C196.81016069 334.90819242 189.36734165 328.21593593 182.63671875 323.16796875 C180.1866291 323.16796875 177.2676148 327.09686836 175.44921875 328.79296875 Z M210.63671875 353.16796875 C214.63671875 354.16796875 214.63671875 354.16796875 214.63671875 354.16796875 Z M309.63671875 446.16796875 C309.30671875 447.48796875 308.97671875 448.80796875 308.63671875 450.16796875 C309.95671875 450.16796875 311.27671875 450.16796875 312.63671875 450.16796875 C312.63671875 448.84796875 312.63671875 447.52796875 312.63671875 446.16796875 C311.64671875 446.16796875 310.65671875 446.16796875 309.63671875 446.16796875 Z M322.63671875 463.16796875 C322.63671875 464.48796875 322.63671875 465.80796875 322.63671875 467.16796875 C323.62671875 466.83796875 324.61671875 466.50796875 325.63671875 466.16796875 C325.30671875 465.17796875 324.97671875 464.18796875 324.63671875 463.16796875 C323.97671875 463.16796875 323.31671875 463.16796875 322.63671875 463.16796875 Z M383.63671875 528.16796875 C383.63671875 529.15796875 383.63671875 530.14796875 383.63671875 531.16796875 C384.29671875 531.16796875 384.95671875 531.16796875 385.63671875 531.16796875 C385.63671875 530.17796875 385.63671875 529.18796875 385.63671875 528.16796875 C384.97671875 528.16796875 384.31671875 528.16796875 383.63671875 528.16796875 Z M359.63671875 537.16796875 C360.63671875 539.16796875 360.63671875 539.16796875 360.63671875 539.16796875 Z M364.63671875 543.16796875 C363.27061727 546.10064066 363.27061727 546.10064066 364.76171875 548.48046875 C366.1942299 550.53373474 367.62841188 552.35026666 369.26171875 554.23046875 C371.32609837 556.78378038 372.27086097 557.99720133 372.63671875 561.16796875 C373.95671875 561.16796875 375.27671875 561.16796875 376.63671875 561.16796875 C377.29671875 562.15796875 377.95671875 563.14796875 378.63671875 564.16796875 C384.43611231 563.57228752 384.43611231 563.57228752 389.63671875 561.16796875 C391.97107455 558.28335812 391.97107455 558.28335812 391.57421875 554.66796875 C390.94236283 551.11181828 390.94236283 551.11181828 388.51171875 549.10546875 C384.57208462 547.82080545 382.48159078 548.75143695 378.63671875 550.16796875 C376.93515625 550.72484375 376.93515625 550.72484375 375.19921875 551.29296875 C374.35359375 551.58171875 373.50796875 551.87046875 372.63671875 552.16796875 C372.34796875 551.05421875 372.05921875 549.94046875 371.76171875 548.79296875 C370.94430546 545.16505783 370.94430546 545.16505783 368.63671875 543.16796875 C367.31671875 543.16796875 365.99671875 543.16796875 364.63671875 543.16796875 Z " fill="#4B40E1" transform="translate(363.36328125,326.83203125)"/>
</svg>
